<?xml version="1.0" encoding="UTF-8"?>
<svg id="Layer_1" data-name="Layer 1" xmlns="http://www.w3.org/2000/svg" viewBox="0 0 318.9 61.2" width="318.9" height="61.2">
  <defs>
    <style>
      .cls-1 {
        fill: #f7fbff;
      }
    </style>
  </defs>
  <path class="cls-1" d="M236.76,41.73h-29.4v6.49h29.4v-6.49ZM203.66,48.22h6.75V.19h-6.75v48.03ZM200.42,41.73h-29.4v6.49h29.4v-6.49ZM167.32,48.22h6.75V.19h-6.75v48.03ZM133.71,48.22l9.34-39.07c.26-1.04.59-1.71.97-2.01.39-.3,1.12-.45,2.21-.45s1.82.15,2.21.45c.39.3.71.97.97,2.01l9.35,39.07h6.94l-9.74-40.69c-.56-2.21-1.74-3.98-3.54-5.32s-3.86-2.01-6.2-2.01-4.4.67-6.2,2.01c-1.8,1.34-2.98,3.12-3.54,5.32l-9.74,40.69h6.94ZM118.4,13.17h6.75V.19h-6.75v12.98ZM97.64,19.66h17.52v-6.49h-17.52v6.49ZM95.24.26v35.63c0,3.94,1.14,6.98,3.41,9.12,2.27,2.14,5.46,3.21,9.57,3.21h6.94v-6.49h-7.4c-1.73,0-2.99-.16-3.76-.49-.78-.32-1.31-.92-1.59-1.78-.28-.86-.42-2.25-.42-4.15V.26h-6.75ZM85.25,6.94h6.75V.19h-6.75v6.75ZM85.25,48.22h6.75V13.17h-6.75v35.05ZM49.57,61.2h20.12c3.94,0,6.98-1.07,9.12-3.21,2.14-2.14,3.21-5.18,3.21-9.12v-28.43c0-2.03-.7-3.75-2.11-5.16-1.41-1.4-3.13-2.11-5.16-2.11h-11.42v6.49h11.42c.13,0,.25.06.36.16.11.11.16.23.16.36v28.1c0,1.9-.14,3.29-.42,4.15-.28.86-.81,1.46-1.59,1.78-.78.33-2.03.49-3.76.49h-19.92v6.49ZM61.9,48.22h14.02v-6.49h-13.82c-1.73,0-2.99-.16-3.76-.49-.78-.32-1.31-.92-1.59-1.78-.28-.86-.42-2.25-.42-4.15v-9.22c0-1.9.14-3.29.42-4.15.28-.86.81-1.46,1.59-1.78.78-.33,2.03-.49,3.76-.49h10.45v-6.49h-10.64c-3.94,0-6.98,1.07-9.12,3.21-2.14,2.14-3.21,5.18-3.21,9.12v10.38c0,3.94,1.07,6.98,3.21,9.12,2.14,2.14,5.18,3.21,9.12,3.21M39.58,6.94h6.75V.19h-6.75v6.75ZM39.58,48.22h6.75V13.17h-6.75v35.05ZM23.82,41.73H6.75V6.68h17.07c1.73,0,2.99.16,3.76.49.78.32,1.31.92,1.59,1.78.28.87.42,2.25.42,4.15v22.2c0,1.9-.14,3.29-.42,4.15-.28.87-.81,1.46-1.59,1.78-.78.33-2.03.49-3.76.49M0,48.22h23.36c4.11,0,7.3-1.07,9.57-3.21,2.27-2.14,3.41-5.18,3.41-9.12V12.53c0-3.94-1.14-6.98-3.41-9.12C30.67,1.27,27.47.19,23.36.19H0v48.03Z"/>
  <path class="cls-1" d="M282.89,44.63c.18-1.3,1-2.1,2.18-2.1,1.28,0,1.98.99,2.11,2.1h-4.28ZM285.18,48.29c1.22,0,2.22-.72,2.49-1.97h-.49c-.22.79-.85,1.5-2,1.5-1.42,0-2.34-.99-2.34-2.76h4.86v-.09c-.03-1.83-1.1-2.91-2.63-2.91-1.39,0-2.72,1.08-2.72,3.15,0,1.82,1.19,3.08,2.84,3.08M281.43,48.22v-.44h-.62c-.69,0-1.07-.42-1.07-1.23v-3.95h1.79v-.44h-1.79v-2.07h-.5v2.07h-1.24v.44h1.24v3.95c0,1.09.55,1.67,1.57,1.67h.62ZM275.16,48.22v-3.3c0-1.39.81-2.24,2.12-2.24h.1v-.55h-.1c-1.09,0-1.83.5-2.15,1.48l-.08-1.45h-.39v6.07h.5ZM270.44,47.83c-1.4,0-2.3-1.03-2.3-2.7s.89-2.6,2.3-2.6,2.3,1.01,2.3,2.6c0,1.67-.9,2.7-2.3,2.7M270.44,48.3c1.55,0,2.83-1.1,2.83-3.17s-1.28-3.07-2.83-3.07-2.83,1.06-2.83,3.07,1.28,3.17,2.83,3.17M260.26,48.22v-7.33l5.11,7.33h.62v-8.01h-.5v7.33l-5.11-7.33h-.62v8.01h.5ZM252.76,47.83c-1.4,0-2.3-1.03-2.3-2.7s.89-2.6,2.3-2.6,2.3,1.01,2.3,2.6c0,1.67-.9,2.7-2.3,2.7M252.76,48.3c1.55,0,2.83-1.1,2.83-3.17s-1.28-3.07-2.83-3.07-2.83,1.06-2.83,3.07,1.28,3.17,2.83,3.17M245.69,47.83c-1.31,0-2.21-1.09-2.21-2.63s.92-2.67,2.23-2.67,2.24,1.05,2.24,2.58c0,1.6-.93,2.73-2.27,2.73M245.66,48.3c1.09,0,1.93-.6,2.32-1.58l.08,1.5h.39v-8.59h-.5v3.89c-.41-.9-1.23-1.46-2.29-1.46-1.64,0-2.72,1.3-2.72,3.14s1.12,3.1,2.72,3.1"/>
  <path class="cls-1" d="M303.46,34.97c1.32,0,1.99-.6,1.99-1.57s-.7-1.31-1.61-1.65l-.95-.36c-.71-.26-1.27-.5-1.27-1.18,0-.63.54-1.03,1.33-1.03,1.09,0,1.68.49,1.87,1.47h.5c-.17-1.26-.99-1.92-2.32-1.92-1.12,0-1.86.58-1.86,1.5,0,1.03.93,1.36,1.6,1.61l.99.37c.73.27,1.25.52,1.25,1.18,0,.7-.46,1.12-1.5,1.12-1.13,0-1.9-.52-1.98-1.48h-.5c.07,1.24,1.06,1.93,2.48,1.93M296.97,34.5c-1.4,0-2.3-1.03-2.3-2.7s.89-2.6,2.3-2.6,2.3,1.01,2.3,2.6c0,1.67-.9,2.7-2.3,2.7M296.97,34.97c1.55,0,2.83-1.1,2.83-3.17s-1.28-3.07-2.83-3.07-2.83,1.06-2.83,3.07,1.28,3.17,2.83,3.17M290.4,34.97c1.43,0,2.44-.95,2.62-2.44h-.5c-.17,1.2-.94,1.97-2.1,1.97-1.27,0-2.36-.92-2.36-2.68,0-1.43.79-2.62,2.27-2.62,1.14,0,1.96.76,2.19,1.95h.5c-.24-1.52-1.27-2.41-2.67-2.41-1.53,0-2.82,1.07-2.82,3.09,0,1.72.99,3.15,2.86,3.15M286.16,28.82h-.5v6.07h.5v-6.07ZM285.91,27.51c.3,0,.52-.23.52-.53s-.22-.51-.52-.51-.53.22-.53.51.23.53.53.53M279.75,34.89v-3.53c.01-1.28.92-2.16,2.16-2.16,1.1,0,1.66.68,1.66,1.76v3.93h.5v-3.96c0-1.35-.73-2.2-2.11-2.2-1.02,0-1.88.55-2.27,1.37l-.07-1.28h-.39v6.07h.5ZM275.24,34.97c1.43,0,2.44-.95,2.62-2.44h-.5c-.17,1.2-.94,1.97-2.1,1.97-1.27,0-2.36-.92-2.36-2.68,0-1.43.79-2.62,2.27-2.62,1.15,0,1.96.76,2.19,1.95h.5c-.24-1.52-1.27-2.41-2.67-2.41-1.53,0-2.82,1.07-2.82,3.09,0,1.72.99,3.15,2.86,3.15M266.44,31.29c.18-1.3,1-2.1,2.18-2.1,1.28,0,1.98.99,2.11,2.1h-4.28ZM268.73,34.96c1.23,0,2.22-.72,2.5-1.97h-.49c-.22.79-.85,1.5-2.01,1.5-1.42,0-2.34-.99-2.34-2.76h4.86v-.09c-.04-1.83-1.1-2.91-2.63-2.91-1.39,0-2.72,1.08-2.72,3.15,0,1.82,1.19,3.08,2.84,3.08M271.54,25.41l-.32-.36-3.22,2.57.32.35,3.22-2.56ZM264.99,34.89v-.44h-.62c-.69,0-1.07-.42-1.07-1.23v-3.95h1.79v-.44h-1.79v-2.07h-.5v2.07h-1.24v.44h1.24v3.95c0,1.09.55,1.67,1.57,1.67h.62ZM260.49,28.82h-.5v6.07h.5v-6.07ZM260.24,27.51c.3,0,.52-.23.52-.53s-.22-.51-.52-.51-.53.22-.53.51.23.53.53.53M258.25,26.3h-.5v8.59h.5v-8.59ZM253.44,34.5c-1.4,0-2.3-1.03-2.3-2.7s.89-2.6,2.3-2.6,2.3,1.01,2.3,2.6c0,1.67-.9,2.7-2.3,2.7M253.44,34.97c1.55,0,2.83-1.1,2.83-3.17s-1.28-3.07-2.83-3.07-2.83,1.06-2.83,3.07,1.28,3.17,2.83,3.17M243.96,27.33h3.17c1.09,0,1.83.8,1.83,1.87,0,1.13-.77,1.91-1.83,1.91h-3.17v-3.78ZM243.96,34.89v-3.32h3.16c1.41,0,2.38-.99,2.38-2.37s-1.03-2.32-2.38-2.32h-3.68v8.01h.51Z"/>
  <path class="cls-1" d="M314.09,17.96c.18-1.29,1-2.1,2.18-2.1,1.28,0,1.98.99,2.11,2.1h-4.28ZM316.38,21.62c1.22,0,2.22-.72,2.49-1.97h-.49c-.22.79-.85,1.5-2,1.5-1.42,0-2.34-.99-2.34-2.76h4.85v-.09c-.03-1.83-1.1-2.91-2.63-2.91-1.39,0-2.72,1.08-2.72,3.15,0,1.82,1.19,3.08,2.84,3.08M309.29,21.17c-1.3,0-2.21-1.09-2.21-2.63s.92-2.67,2.23-2.67,2.24,1.05,2.24,2.58c0,1.6-.93,2.73-2.27,2.73M309.27,21.63c1.09,0,1.93-.61,2.32-1.58l.08,1.5h.39v-8.59h-.5v3.89c-.41-.9-1.23-1.46-2.29-1.46-1.64,0-2.72,1.3-2.72,3.14s1.12,3.1,2.72,3.1M300.05,21.17c-1.4,0-2.3-1.03-2.3-2.7s.89-2.6,2.3-2.6,2.3,1.01,2.3,2.6c0,1.67-.9,2.7-2.3,2.7M300.05,21.63c1.55,0,2.83-1.1,2.83-3.17s-1.28-3.07-2.83-3.07-2.83,1.06-2.83,3.07,1.28,3.17,2.83,3.17M292.87,21.15c-1.02,0-1.61-.5-1.61-1.3,0-1.03,1-1.21,1.98-1.31.86-.08,1.72-.15,1.94-.46v.56c0,1.63-.84,2.5-2.3,2.5M292.81,21.61c1.18,0,2-.52,2.38-1.52v.74c0,.47.25.72.73.72h.42v-.44h-.38c-.19,0-.31-.12-.31-.33v-3.22c0-1.29-.87-2.16-2.36-2.16-1.31,0-2.31.78-2.43,1.91h.5c.13-.9.93-1.45,1.91-1.45,1.16,0,1.88.68,1.88,1.63,0,.53-.95.52-2.2.68-.95.13-2.23.36-2.22,1.73.01,1.05.78,1.73,2.06,1.73M294.29,14.1c.64,0,1.01-.5,1.01-1.28h-.46c0,.53-.23.85-.63.85-.67,0-1.12-.95-1.95-.95-.63,0-1.03.54-1.03,1.34h.47c0-.55.24-.9.61-.9.6,0,1.09.95,1.98.95M286.98,21.17c-1.27,0-2.36-.92-2.36-2.68,0-1.43.79-2.62,2.27-2.62,1.14,0,1.96.76,2.19,1.95h.5c-.24-1.52-1.27-2.42-2.67-2.42-1.54,0-2.82,1.08-2.82,3.09,0,1.64.9,3.01,2.61,3.14l-.65,2.1.48.09.66-2.19c1.3-.1,2.21-1.02,2.38-2.43h-.5c-.17,1.2-.94,1.97-2.1,1.97M279.75,21.15c-1.02,0-1.61-.5-1.61-1.3,0-1.03,1-1.21,1.98-1.31.86-.08,1.72-.15,1.94-.46v.56c0,1.63-.84,2.5-2.3,2.5M279.69,21.61c1.18,0,2-.52,2.38-1.52v.74c0,.47.25.72.73.72h.42v-.44h-.38c-.19,0-.31-.12-.31-.33v-3.22c0-1.29-.87-2.16-2.36-2.16-1.31,0-2.31.78-2.43,1.91h.5c.13-.9.93-1.45,1.91-1.45,1.16,0,1.88.68,1.88,1.63,0,.53-.95.52-2.2.68-.95.13-2.23.36-2.22,1.73.01,1.05.78,1.73,2.06,1.73M276.21,15.49h-.5v6.07h.5v-6.07ZM275.96,14.18c.3,0,.52-.23.52-.53s-.22-.51-.52-.51-.53.22-.53.51.23.53.53.53M271.7,21.63c1.43,0,2.44-.95,2.62-2.44h-.5c-.17,1.2-.94,1.97-2.1,1.97-1.27,0-2.36-.92-2.36-2.68,0-1.43.79-2.62,2.27-2.62,1.14,0,1.96.76,2.19,1.95h.5c-.24-1.52-1.27-2.42-2.67-2.42-1.53,0-2.82,1.08-2.82,3.09,0,1.72.99,3.15,2.86,3.15M264.89,21.17c-1.4,0-2.3-1.03-2.3-2.7s.89-2.6,2.3-2.6,2.3,1.01,2.3,2.6c0,1.67-.9,2.7-2.3,2.7M264.89,21.63c1.55,0,2.83-1.1,2.83-3.17s-1.28-3.07-2.83-3.07-2.83,1.06-2.83,3.07,1.28,3.17,2.83,3.17M259.05,21.63c1.32,0,1.99-.61,1.99-1.57s-.7-1.31-1.61-1.65l-.95-.35c-.71-.26-1.27-.5-1.27-1.18,0-.63.54-1.03,1.33-1.03,1.09,0,1.68.49,1.87,1.47h.5c-.17-1.26-.99-1.92-2.32-1.92-1.12,0-1.86.58-1.86,1.5,0,1.03.93,1.36,1.6,1.62l.98.37c.73.27,1.25.51,1.25,1.18,0,.7-.46,1.12-1.5,1.12-1.13,0-1.9-.52-1.98-1.48h-.5c.07,1.24,1.06,1.93,2.48,1.93M253.5,21.63c1.32,0,1.99-.61,1.99-1.57s-.7-1.31-1.61-1.65l-.95-.35c-.71-.26-1.27-.5-1.27-1.18,0-.63.54-1.03,1.33-1.03,1.09,0,1.68.49,1.87,1.47h.5c-.17-1.26-.99-1.92-2.32-1.92-1.12,0-1.86.58-1.86,1.5,0,1.03.93,1.36,1.6,1.62l.99.37c.73.27,1.25.51,1.25,1.18,0,.7-.46,1.12-1.5,1.12-1.13,0-1.9-.52-1.98-1.48h-.5c.07,1.24,1.06,1.93,2.48,1.93M246.38,14.2l1.74,4.26h-3.49l1.75-4.26ZM243.36,21.55l1.09-2.65h3.86l1.09,2.65h.56l-3.31-8.01h-.54l-3.3,8.01h.55Z"/>
  <path class="cls-1" d="M278.79,1.8h2.22c.69,0,1.03.53,1.03,1.07s-.34,1.07-1.03,1.07h-2.22V1.8ZM278.79,8.22v-2.74h1.92c.36,0,.62.16.72.46l.82,2.28h1.9l-.96-2.56c-.23-.58-.7-.95-1.33-1.04,1.16-.24,1.92-1.05,1.92-2.08,0-1.37-1.06-2.32-2.6-2.32h-4.19v8.01h1.79ZM271.84,6.84c-1.42,0-2.33-1.03-2.33-2.65s.9-2.6,2.33-2.6,2.35,1.02,2.35,2.6-.92,2.65-2.35,2.65M271.84,8.43c2.53,0,4.16-1.74,4.16-4.24s-1.71-4.19-4.16-4.19-4.13,1.72-4.13,4.19,1.69,4.24,4.13,4.24M261.4,8.22V2.79l3.41,5.43h1.89V.21h-1.78v5.44l-3.41-5.44h-1.89v8.01h1.79ZM253.31,1.8h2.38c.72,0,1.08.55,1.08,1.11s-.35,1.11-1.08,1.11h-2.38V1.8ZM253.31,8.22v-2.61h2.57c1.59,0,2.7-1.11,2.7-2.7s-1.11-2.7-2.7-2.7h-4.35v8.01h1.78ZM246.61,2.54l.99,2.46h-1.98l1-2.46ZM244.31,8.22l.68-1.66h3.24l.68,1.66h1.84l-3.26-8.01h-1.76l-3.25,8.01h1.84Z"/>
</svg>