<?xml version="1.0" encoding="UTF-8"?>
<svg xmlns="http://www.w3.org/2000/svg" xmlns:xlink="http://www.w3.org/1999/xlink" viewBox="0 0 359.83 36" width="359.83" height="36">
  <defs>
    <style>
      .cls-1, .cls-2 {
        fill: none;
      }

      .cls-3 {
        fill: #58a249;
      }

      .cls-4 {
        fill: #3c5c2c;
      }

      .cls-5 {
        fill: #4b7f3b;
      }

      .cls-6 {
        fill: #58a34a;
      }

      .cls-7 {
        fill: #58a24a;
      }

      .cls-8 {
        fill: #457136;
      }

      .cls-9 {
        fill: #375127;
      }

      .cls-10 {
        fill: #569e48;
      }

      .cls-11 {
        fill: #519043;
      }

      .cls-12 {
        fill: #3f632f;
      }

      .cls-13 {
        fill: #30431f;
      }

      .cls-14 {
        fill: #518d42;
      }

      .cls-15 {
        fill: #4a7b3a;
      }

      .cls-16 {
        fill: #416631;
      }

      .cls-17 {
        fill: #569f49;
      }

      .cls-18 {
        fill: #406430;
      }

      .cls-19, .cls-20, .cls-21, .cls-22, .cls-23, .cls-24, .cls-25, .cls-26 {
        fill-rule: evenodd;
      }

      .cls-19, .cls-27 {
        fill: #fff;
      }

      .cls-28 {
        fill: #5cb34f;
      }

      .cls-29 {
        fill: #344a23;
      }

      .cls-30 {
        fill: #477638;
      }

      .cls-31 {
        fill: #529143;
      }

      .cls-32 {
        fill: #508b41;
      }

      .cls-33 {
        fill: #4a7c3a;
      }

      .cls-34 {
        fill: #fcb419;
      }

      .cls-35 {
        fill: #446e34;
      }

      .cls-36 {
        fill: #549545;
      }

      .cls-37 {
        fill: #4c803d;
      }

      .cls-38 {
        fill: #59aa4c;
      }

      .cls-39 {
        fill: #314520;
      }

      .cls-40 {
        fill: url(#linear-gradient-5);
      }

      .cls-41 {
        fill: url(#linear-gradient-4);
      }

      .cls-42 {
        fill: url(#linear-gradient-3);
      }

      .cls-43 {
        fill: url(#linear-gradient-2);
      }

      .cls-44 {
        fill: #4d853f;
      }

      .cls-45 {
        fill: #5cb750;
      }

      .cls-46 {
        fill: #5aaa4d;
      }

      .cls-20 {
        fill: #4db757;
      }

      .cls-47 {
        fill: #3d5d2d;
      }

      .cls-48 {
        fill: #457035;
      }

      .cls-49 {
        fill: #364f25;
      }

      .cls-50 {
        fill: #5aab4d;
      }

      .cls-51 {
        fill: #5aad4e;
      }

      .cls-52 {
        fill: #3e602e;
      }

      .cls-53 {
        fill: url(#linear-gradient);
      }

      .cls-54 {
        fill: #344b23;
      }

      .cls-55 {
        fill: #324822;
      }

      .cls-56 {
        fill: #549846;
      }

      .cls-57 {
        fill: #4c813d;
      }

      .cls-58 {
        fill: #4f8a40;
      }

      .cls-59 {
        fill: #00733d;
      }

      .cls-60 {
        fill: #58a74b;
      }

      .cls-61 {
        fill: #58a149;
      }

      .cls-62 {
        fill: #324922;
      }

      .cls-63 {
        fill: #44444a;
      }

      .cls-64 {
        fill: #446d34;
      }

      .cls-65 {
        fill: #539444;
      }

      .cls-66 {
        fill: #426a33;
      }

      .cls-67 {
        fill: #5cba52;
      }

      .cls-68 {
        fill: #354e25;
      }

      .cls-69 {
        isolation: isolate;
      }

      .cls-70 {
        fill: #477337;
      }

      .cls-71 {
        fill: #457236;
      }

      .cls-72 {
        fill: #385428;
      }

      .cls-73 {
        fill: #3a582a;
      }

      .cls-74 {
        fill: #87c355;
      }

      .cls-75 {
        fill: #487839;
      }

      .cls-76 {
        fill: #518c41;
      }

      .cls-77 {
        fill: #3c5a2b;
      }

      .cls-78 {
        fill: #3f622f;
      }

      .cls-79 {
        fill: #58a44a;
      }

      .cls-80 {
        fill: #4c823e;
      }

      .cls-81 {
        clip-path: url(#clippath-1);
      }

      .cls-82 {
        clip-path: url(#clippath-3);
      }

      .cls-83 {
        clip-path: url(#clippath-4);
      }

      .cls-84 {
        clip-path: url(#clippath-2);
      }

      .cls-85 {
        clip-path: url(#clippath-5);
      }

      .cls-86 {
        fill: #549745;
      }

      .cls-87 {
        fill: #4e863f;
      }

      .cls-88 {
        fill: #416731;
      }

      .cls-89 {
        fill: #ed1d24;
      }

      .cls-90 {
        fill: #5cb951;
      }

      .cls-91 {
        fill: #497b3a;
      }

      .cls-92 {
        fill: #375026;
      }

      .cls-93 {
        fill: #4c823d;
      }

      .cls-94 {
        fill: #314420;
      }

      .cls-95 {
        fill: #3f602e;
      }

      .cls-96 {
        fill: #5bb04e;
      }

      .cls-21 {
        fill: #27306c;
      }

      .cls-97 {
        fill: #3b592b;
      }

      .cls-98 {
        fill: #436b33;
      }

      .cls-99 {
        fill: #374f26;
      }

      .cls-100 {
        fill: #3d5e2d;
      }

      .cls-101 {
        fill: #4f873f;
      }

      .cls-2 {
        clip-rule: evenodd;
      }

      .cls-102 {
        fill: #487738;
      }

      .cls-103 {
        fill: #446c33;
      }

      .cls-104 {
        fill: #446f35;
      }

      .cls-105 {
        fill: #5bb14f;
      }

      .cls-106 {
        fill: #354c24;
      }

      .cls-107 {
        fill: #000218;
      }

      .cls-108 {
        fill: #4f863f;
      }

      .cls-109 {
        fill: #569c47;
      }

      .cls-110 {
        fill: #395528;
      }

      .cls-111 {
        fill: #385327;
      }

      .cls-112 {
        fill: #4a7e3b;
      }

      .cls-113 {
        fill: #456f35;
      }

      .cls-114 {
        fill: #477437;
      }

      .cls-115 {
        fill: #3a572a;
      }

      .cls-116 {
        fill: #3f612f;
      }

      .cls-117 {
        fill: #3a592a;
      }

      .cls-118 {
        fill: #324621;
      }

      .cls-119 {
        fill: #58a54b;
      }

      .cls-120 {
        fill: #549946;
      }

      .cls-121 {
        fill: #426932;
      }

      .cls-122 {
        fill: #58a64b;
      }

      .cls-123 {
        fill: #518e42;
      }

      .cls-124 {
        fill: #324721;
      }

      .cls-125 {
        fill: #549645;
      }

      .cls-126 {
        fill: #3c5b2c;
      }

      .cls-127 {
        fill: #4f8940;
      }

      .cls-128 {
        fill: #314620;
      }

      .cls-129 {
        fill: #0d4e81;
      }

      .cls-130 {
        fill: #5bb24f;
      }

      .cls-131 {
        fill: #569d48;
      }

      .cls-132 {
        fill: #497939;
      }

      .cls-133 {
        fill: #5aac4d;
      }

      .cls-134 {
        fill: #385328;
      }

      .cls-135 {
        fill: #375227;
      }

      .cls-136 {
        fill: #3c5d2c;
      }

      .cls-137 {
        fill: #3b3c42;
      }

      .cls-138 {
        fill: #4c803c;
      }

      .cls-139 {
        fill: #5cb550;
      }

      .cls-140 {
        fill: #4f8840;
      }

      .cls-141 {
        fill: #497a39;
      }

      .cls-142 {
        fill: #518f43;
      }

      .cls-143 {
        fill: #5aae4e;
      }

      .cls-144 {
        fill: #406530;
      }

      .cls-145 {
        fill: #559b47;
      }

      .cls-146 {
        fill: #204d9c;
      }

      .cls-147 {
        fill: #539344;
      }

      .cls-148 {
        fill: #f7ec3e;
      }

      .cls-149 {
        fill: #354d24;
      }

      .cls-150 {
        fill: #559a47;
      }

      .cls-151 {
        fill: #59a94c;
      }

      .cls-152 {
        fill: #477538;
      }

      .cls-153 {
        fill: #3d5f2d;
      }

      .cls-154, .cls-22 {
        fill: #f6ec3d;
      }

      .cls-155 {
        fill: #5a5b62;
        font-family: ArialMT, Arial;
        font-size: 7.95px;
      }

      .cls-156 {
        fill: #426832;
      }

      .cls-157 {
        fill: #4a7d3b;
      }

      .cls-158 {
        clip-path: url(#clippath);
      }

      .cls-23 {
        fill: url(#linear-gradient-8);
        opacity: .1;
      }

      .cls-23, .cls-24, .cls-25, .cls-26 {
        mix-blend-mode: multiply;
      }

      .cls-24 {
        fill: url(#linear-gradient-6);
        opacity: .82;
      }

      .cls-25 {
        fill: url(#linear-gradient-9);
      }

      .cls-25, .cls-26 {
        opacity: .75;
      }

      .cls-26 {
        fill: url(#linear-gradient-7);
      }

      .cls-159 {
        fill: #3a5629;
      }

      .cls-160 {
        fill: #395529;
      }

      .cls-161 {
        fill: #4d833e;
      }

      .cls-162 {
        fill: #529244;
      }
    </style>
    <clipPath id="clippath">
      <path class="cls-2" d="M16.17,5.38c-4.49.06-8.37,2.62-10.33,6.34-.82-2.2-.67-4.32,2.56-6.35-.47.26-.92.54-1.36.85,2.08-1.45,3.05-1.67,3.05-1.67,3.12-1.08,5.03-.77,6.09.83"/>
    </clipPath>
    <linearGradient id="linear-gradient" x1="1026.39" y1="-195.76" x2="1026.46" y2="-208.59" gradientTransform="translate(-1015.16 212.15)" gradientUnits="userSpaceOnUse">
      <stop offset=".33" stop-color="#225e2e"/>
      <stop offset=".69" stop-color="#3fa24a"/>
      <stop offset="1" stop-color="#62bb6d"/>
    </linearGradient>
    <clipPath id="clippath-1">
      <path class="cls-2" d="M28.68,30.33l-.02.03c-3.8,3.58-6.12,1.39-7.38-2.34,3.94-1.81,6.71-5.71,6.9-10.28.78.48,1.75.9,2.24,1.63,2.24,3.39.97,7.67-1.74,10.96"/>
    </clipPath>
    <linearGradient id="linear-gradient-2" x1="1268.68" y1="343.24" x2="1268.77" y2="326.05" gradientTransform="translate(-1240.39 -309.69)" xlink:href="#linear-gradient"/>
    <clipPath id="clippath-2">
      <path class="cls-2" d="M16.33,3.31c9.02,0,16.33,7.31,16.33,16.33,0,4.1-1.51,7.84-4,10.7,2.72-3.3,3.69-7.44,1.45-10.83-2.24-3.39-8.4-3.11-10.64-8.05-2.24-4.94-3.3-8.82-9.4-6.92,1.93-.8,4.04-1.24,6.26-1.24"/>
    </clipPath>
    <linearGradient id="linear-gradient-3" x1="9.74" y1="14.95" x2="35.1" y2="14.95" gradientUnits="userSpaceOnUse">
      <stop offset=".28" stop-color="#225e2e"/>
      <stop offset=".56" stop-color="#3fa24a"/>
      <stop offset=".77" stop-color="#65be72"/>
    </linearGradient>
    <clipPath id="clippath-3">
      <path class="cls-2" d="M28.67,30.36c-2.99,3.44-7.41,5.62-12.33,5.62C7.31,35.98,0,28.67,0,19.64c0,7.47,10.45-.59,15.66,1.34,5.35,1.99,6.48,15.62,13,9.37"/>
    </clipPath>
    <clipPath id="clippath-4">
      <rect class="cls-1" y="19.05" width="28.67" height="17.56"/>
    </clipPath>
    <linearGradient id="linear-gradient-4" x1="-.54" y1="29.11" x2="27.66" y2="29.11" gradientUnits="userSpaceOnUse">
      <stop offset=".27" stop-color="#225e2e"/>
      <stop offset=".72" stop-color="#3fa24a"/>
    </linearGradient>
    <clipPath id="clippath-5">
      <path class="cls-2" d="M16.33,35.98C7.31,35.98,0,28.67,0,19.64c0-6.14,3.39-11.48,8.39-14.27-5.69,4.19-.91,8.95-.07,13.85,1.01,5.91-4.76,15.61,8.02,16.76"/>
    </clipPath>
    <linearGradient id="linear-gradient-5" x1="1289.67" y1="355.4" x2="1289.85" y2="323.12" gradientTransform="translate(-1282.45 -319.65)" gradientUnits="userSpaceOnUse">
      <stop offset=".23" stop-color="#225e2e"/>
      <stop offset=".51" stop-color="#3fa24a"/>
      <stop offset=".78" stop-color="#62bb6d"/>
    </linearGradient>
    <linearGradient id="linear-gradient-6" x1="1.26" y1="31.66" x2="14.25" y2="24.42" gradientUnits="userSpaceOnUse">
      <stop offset=".22" stop-color="#fff" stop-opacity="0"/>
      <stop offset=".23" stop-color="#f5faf9" stop-opacity=".04"/>
      <stop offset=".29" stop-color="#b9dfd4" stop-opacity=".3"/>
      <stop offset=".35" stop-color="#85c8b5" stop-opacity=".51"/>
      <stop offset=".41" stop-color="#5bb59c" stop-opacity=".69"/>
      <stop offset=".48" stop-color="#3aa788" stop-opacity=".83"/>
      <stop offset=".56" stop-color="#239c7a" stop-opacity=".93"/>
      <stop offset=".66" stop-color="#169672" stop-opacity=".98"/>
      <stop offset=".81" stop-color="#129570"/>
    </linearGradient>
    <linearGradient id="linear-gradient-7" x1="21.29" y1="29.8" x2="28.68" y2="29.8" gradientUnits="userSpaceOnUse">
      <stop offset="0" stop-color="#fff" stop-opacity="0"/>
      <stop offset=".11" stop-color="#adabac" stop-opacity=".37"/>
      <stop offset=".28" stop-color="#5e5b5c" stop-opacity=".73"/>
      <stop offset=".5" stop-color="#302c2d" stop-opacity=".94"/>
      <stop offset="1" stop-color="#231f20"/>
    </linearGradient>
    <linearGradient id="linear-gradient-8" x1="7.87" y1="28.43" x2="16.33" y2="28.43" xlink:href="#linear-gradient-7"/>
    <linearGradient id="linear-gradient-9" x1="7.87" y1="28.69" x2="16.33" y2="28.69" xlink:href="#linear-gradient-7"/>
  </defs>
  <g class="cls-69">
    <g id="Layer_1" data-name="Layer 1">
      <g>
        <g>
          <g>
            <path class="cls-59" d="M122.02,3.14c-6.2,2-9.34,7.26-9.34,15.39v12.32s1.04-7.92,9.34-10.2V3.14Z"/>
            <path class="cls-89" d="M122.71,5.46s4.72-1.79,11.43-2.17c0,0-.02,5.61-.2,10.16-.57,14.39-13.43,7-19.73,14.65,1.26-3.31,5.57-5.67,8.5-6.25V5.46Z"/>
            <path class="cls-59" d="M120.97,26.01s-6.84.56-7.42,4.45c-.46,3.06,7.42,3.14,7.42,3.14v-7.59Z"/>
            <path class="cls-74" d="M112.97,14.54c1.42-3.31,3.81-6.69,9.05-8.8v-2.6c-5.12,1.65-8.15,5.53-9.05,11.4Z"/>
            <g>
              <path class="cls-34" d="M117.15,10.96h0s0,0,0,0h0s0,0,0,0h0s0,0,0,0c0,0,0,0,0,0h0s.02,0,.02,0h0s.06,0,.09,0h.01s.06,0,.09,0h0s.01,0,.02,0h0s.04,0,.06,0h0s.01,0,.02,0h0s.04,0,.07.01h0s.02,0,.02,0h0s.05.01.07.02h0c.08.02.17.05.27.08h0s.02,0,.03,0c0,0,0,0,0,0,0,0,.02,0,.03,0,0,0,0,0,0,0,.03,0,.06.02.08.03,0,0,.01,0,.02,0,0,0,.02,0,.02,0,0,0,0,0,.02,0,0,0,.02,0,.02,0,.01,0,.02,0,.04.01,0,0,.01,0,.02,0,0,0,.02,0,.02,0,0,0,.01,0,.02,0,0,0,.02,0,.02,0,0,0,.01,0,.02,0,.01,0,.03.01.04.02,0,0,0,0,0,0,.01,0,.02,0,.03.01,0,0,0,0,.02,0,0,0,.02,0,.03.01,0,0,0,0,.01,0,.01,0,.03.01.04.02v-.35c-.05.01-.1.02-.15.03-.04,0-.09.02-.13.03h0s-.03,0-.04-.01c0,0-.01,0-.02,0,0,0-.01,0-.02,0,0,0-.01,0-.02,0,0,0,0,0-.01,0,0,0-.02,0-.02,0,0,0,0,0-.02,0-.1-.03-.2-.06-.28-.09h0s-.01,0-.02,0t0,0s-.02,0-.02,0c0,0,0,0,0,0,0,0-.02,0-.03,0h0s0,0,0,0t0,0s.02,0,.03-.01c0,0,0,0,0,0,.01,0,.02,0,.04,0,0,0,0,0,0,0,.01,0,.02,0,.04-.01h0s.05-.02.08-.02h0s.03,0,.04-.01h0c.17-.05.36-.1.57-.15v-.17s0,0,0,0c0,0,0,0,0,0v-.22c-.1.1-.2.19-.29.29-.24.06-.45.13-.62.2,1.02-1.33,2.58-2.22,4.36-2.35l.02-.16c-1.91.12-3.59,1.12-4.63,2.59-.09,0-.15.02-.2.05,0,0,0,0,0,0l-.09.16s-.01.04,0,.08c0-.06.04-.1.12-.12ZM117.51,10.8s0,0,0,0c0,0,0,0,0,0h0ZM121.86,8.88c-1.04.09-2,.48-2.79,1.07h-.26c.86-.69,1.91-1.14,3.07-1.23l-.02.16ZM116.58,12s0-.1,0-.1l.08-.15s0,0,0,0c.02-.02.06-.03.1-.03h0s.02,0,.03,0c.04,0,.09,0,.14.01h0c.1.02.22.04.35.08.05.01.1.03.15.05h0s.04.01.06.02h0s.02,0,.03,0h0s.02,0,.03,0h0s.02,0,.03,0h0s.02,0,.03.01h0s.02,0,.03.01h0s.02,0,.03,0c0,0,0,0,0,0,0,0,.02,0,.03,0h0s.02,0,.03.01h0s.02,0,.03.01c0,0,0,0,0,0,0,0,.02,0,.03,0h0s.02,0,.03.01c0,0,0,0,0,0,0,0,.02,0,.03,0,0,0,0,0,0,0,0,0,.02,0,.03,0,0,0,0,0,0,0,0,0,.02,0,.03,0,0,0,0,0,0,0,.01,0,.02,0,.03,0,0,0,0,0,0,0,.01,0,.02,0,.03.01,0,0,0,0,0,0,0,0,.02,0,.02,0,0,0,0,0,0,0,0,0,.01,0,.02,0,0,0,0,0,0,0,0,0,.02,0,.03.01,0,0,0,0,0,0,0,0,.02,0,.02,0,0,0,0,0,0,0,0,0,.02,0,.02,0,0,0,0,0,.01,0,0,0,.02,0,.02,0,0,0,0,0,.01,0,0,0,.02,0,.02,0,0,0,0,0,.01,0,0,0,.02,0,.02,0,0,0,0,0,.01,0,0,0,.02,0,.02,0,0,0,0,0,.01,0,0,0,.02,0,.02,0,0,0,0,0,.01,0,0,0,.01,0,.02,0,0,0,0,0,.02,0,0,0,.02,0,.02,0,0,0,.01,0,.02,0,0,0,.02,0,.03.01,0,0,0,0,0,0,.01,0,.03.01.04.01v.18c-.43-.19-.81-.34-1.11-.44h0c-.05-.02-.1-.03-.15-.05h0c-.14-.04-.26-.06-.35-.08,0,0-.01,0-.02,0h0s0,0-.01,0h-.02s0,0,0,0h-.02s0,0,0,0h-.04s-.04,0-.05,0h0c-.06,0-.11.03-.13.13ZM118.45,18.25c.89.89,2.08,1.49,3.41,1.61l.02.16c-1.69-.14-3.17-1.03-4.12-2.33.1,0,.18,0,.21,0,.14.19.3.37.47.54,0,0,0,0,.01.01h0ZM122.55,8.19v-.1s0,0,0-.01c0,0,0,0,0,0h.13s.02,0,.02.02v.1c1.95.11,3.67,1.13,4.72,2.63.08.04.14.07.19.11,0,0,0,0,0,0,0,0,.1.16.12.19.02.03,0,.07-.03.09.02-.02.03-.03-.03-.09-.02-.02-.04-.03-.06-.05h0s0,0-.01,0h0s-.01,0-.02-.01h0c-.08-.05-.18-.09-.29-.14h0s-.02,0-.03-.01c0,0,0,0,0,0,0,0-.02,0-.03-.01,0,0,0,0,0,0,0,0-.02,0-.03-.01h0s-.02,0-.03-.01c0,0,0,0,0,0,0,0-.02,0-.03-.01h0s-.02,0-.03-.01c0,0,0,0,0,0-.01,0-.02,0-.03-.01,0,0,0,0,0,0-.02,0-.05-.01-.07-.02,0,0,0,0,0,0,0,0-.02,0-.03-.01h0s-.03,0-.03-.01h0s-.02,0-.04-.01c0,0,0,0,0,0-.01,0-.02,0-.04,0h0s-.02,0-.04-.01h0s-.03,0-.04,0t0,0c-.1-.03-.2-.06-.31-.08h0s-.03,0-.05-.01h0s-.03,0-.05-.02h0s-.03,0-.05,0h0s-.03,0-.05-.01h0v-.17h0v-.22c.1.1.2.19.29.29.23.06.44.13.62.19-1.03-1.35-2.63-2.24-4.43-2.34v.35c1.22.07,2.33.53,3.22,1.25h-.26c-.84-.62-1.85-1.02-2.96-1.09v1.08h-.16v-1.76ZM127.79,11.39c.06.03.1.06.13.08,0,0,.07.13.09.16.02.03,0,.07-.04.08.02,0,.05-.04-.02-.07-.02,0-.04-.02-.05-.03h0s0,0,0,0c-.17-.09-.42-.18-.73-.27h0c-.07-.02-.15-.04-.23-.06h0c-.21-.06-.45-.11-.7-.16v-.17s.06.01.09.02h0s.02,0,.02,0c0,0,0,0,0,0,0,0,.02,0,.02,0,0,0,0,0,0,0,0,0,.02,0,.02,0,0,0,0,0,0,0,0,0,.02,0,.02,0,0,0,0,0,.01,0,0,0,.01,0,.02,0,0,0,0,0,.01,0,0,0,.01,0,.02,0,0,0,.02,0,.03,0,0,0,0,0,0,0,.01,0,.02,0,.03,0,0,0,0,0,0,0,0,0,.02,0,.02,0,0,0,0,0,0,0,0,0,.02,0,.02,0,0,0,0,0,0,0,0,0,.02,0,.02,0,0,0,0,0,0,0,0,0,.02,0,.03,0,0,0,0,0,0,0,0,0,.02,0,.03,0h0s.02,0,.03,0c.08.02.16.04.24.06.01,0,.02,0,.03,0h0s.05.01.07.02h0s.07.02.1.03h0c.11.03.21.07.3.1h0c.1.03.18.06.24.1,0,0,0,0,.01,0h0ZM122.01,8.19s-.02,0-.03,0c0,0,.02,0,.03,0ZM116.1,14.23v-.16s0,0,0,0c.01-.04.05-.08.1-.12.04-.66.19-1.29.43-1.87,0,0,0,0,0,0,0,0,0-.01.01-.02,0-.01,0-.02.01-.03h0s.02-.04.03-.06c0,0,0-.01,0-.02.03,0,.08.02.15.05-.25.58-.41,1.2-.46,1.85.1-.06.23-.12.37-.17.07-.52.2-1.02.4-1.48.04.04.08.08.12.13-.03.08-.06.16-.1.25,0,0,0,0,0,0-.11.33-.2.68-.25,1.03.38-.14.86-.27,1.39-.37.07-.02.14-.03.21-.04v.17c-.06.01-.12.02-.17.03-.02,0-.03,0-.05,0h0s-.03,0-.04,0c0,0,0,0,0,0-.02,0-.03,0-.04,0h0s-.03,0-.05,0h0s-.03,0-.04,0c0,0,0,0,0,0-.01,0-.03,0-.04,0,0,0,0,0,0,0-.01,0-.03,0-.04,0h0s-.03,0-.05.01h0s-.03,0-.04,0h0s-.03,0-.04.01h0s-.03,0-.05.01h0s-.03,0-.05.01h0s-.03,0-.04.01c0,0,0,0,0,0-.02,0-.03,0-.05.01h0s-.03,0-.05.01h0s-.03,0-.04.01h0s-.03,0-.04.01h0s-.06.02-.09.03h0s-.03,0-.04.01h0s-.03,0-.04.01h0s-.03,0-.04.01h0s-.03,0-.04.01h0s-.03,0-.04.01h0s-.06.02-.08.03h0s-.03,0-.04.01h0s-.02,0-.04.01h0s-.05.02-.08.03c0,0,0,0,0,0-.01,0-.02,0-.04.01h0s-.03.01-.04.02h0c-.06.02-.11.04-.17.07h0s-.01,0-.02,0c0,0,0,0,0,0,0,0-.02,0-.02,0,0,0,0,0,0,0-.02,0-.03.02-.05.02h0s-.02,0-.03.01h0s-.02,0-.02.01h0s-.02,0-.02.01h0s-.02,0-.02,0h0s-.02,0-.02.01h0s-.03.02-.04.02h0s-.01,0-.02.01h0s-.03.02-.04.02h0s-.01,0-.02,0h0s-.01,0-.02.01h0c-.06.04-.12.08-.15.12,0,0,0,0,0,0h0s-.08.08-.06.11c-.02,0-.03-.02-.03-.04ZM122.02,8.7v-.61s0-.02.02-.02h.14s.01,0,.01.02v1.86h-.16v-1.25ZM127.39,18.04s0,.07-.01.09c0,0-.05.08-.07.11-.02.03-.05.06-.11.07.01,0,.11-.02.06-.17h0s-.01-.03-.02-.05c-.02-.03-.04-.06-.07-.11h0c-.06-.07-.14-.16-.24-.26h0s-.07-.07-.12-.11h0c-.24-.22-.57-.49-.98-.81.03-.05.05-.11.08-.16h0c.49.36.89.69,1.15.94h0s.04.04.06.06c0,0,0,0,0,0,0,0,.01,0,.02.02t0,0s0,0,.01.02c0,0,0,0,0,0,0,0,0,.01.01.02,0,0,0,0,0,0,0,0,0,0,.01.01,0,0,0,0,0,0,0,0,0,0,.01.01,0,0,0,0,0,0,0,0,0,.01.01.02h0s.02.02.03.03h0s0,.01.01.02t0,0s0,0,0,.01c0,0,0,0,0,0,.04.06.08.11.1.15,0,0,0,0,0,0,0,0,0,0,0,0,0,0,0,0,0,0,0,0,0,0,0,0,0,0,0,.02,0,.02ZM127.21,18.2s-.03.04-.04.05h0s-.02.03-.04.05c-1.06,1.28-2.64,2.13-4.41,2.23v.1s0,0,0,.01c0,0,0,0-.01,0h-.13s-.02,0-.02-.02v-1.67c.06,0,.11,0,.17,0v.91c1.37-.09,2.61-.68,3.53-1.59h0s0,0,0,0c.01-.01.02-.03.04-.04,0,0,0,0,0,0,.11-.11.22-.23.32-.36.06.02.11.03.16.05-.97,1.21-2.43,2-4.07,2.1v.35c1.78-.1,3.34-.97,4.38-2.29.06.05.1.08.12.11ZM128.53,14.77s0,.06,0,.09h0c-.06.8-.28,1.55-.61,2.24.04.09.05.15.02.21,0,0-.05.07-.08.11-.02.04-.03.05-.08.06.03,0,.08-.07.06-.16h0s0-.03-.01-.05h0s-.02-.05-.04-.08c-.04-.07-.1-.14-.16-.22h0s0-.01-.01-.02h0s0-.02-.02-.02h0c-.07-.08-.16-.17-.25-.26,0,0,0,0,0,0,0,0-.02-.02-.02-.03h0s-.06-.06-.09-.08c0,0,0,0,0,0,0,0-.02-.02-.03-.02,0,0,0,0,0,0-.03-.03-.06-.06-.1-.09,0,0,0,0,0,0-.01,0-.02-.02-.03-.02,0,0,0,0,0,0-.03-.03-.07-.06-.1-.09,0,0,0,0,0,0,0,0-.02-.02-.03-.02,0,0,0,0,0,0-.01,0-.02-.02-.03-.03h0s-.05-.04-.07-.06c0,0,0,0,0,0-.01,0-.02-.02-.03-.02,0,0,0,0,0,0,0,0-.02-.02-.03-.03,0,0,0,0,0,0-.01,0-.02-.02-.04-.03h0s-.02-.02-.03-.03c0,0,0,0,0,0,0,0-.02-.01-.03-.02,0,0,0,0,0,0,0,0-.02-.02-.03-.02,0,0,0,0,0,0-.01,0-.03-.02-.04-.03t0,0s-.02-.02-.04-.03c0,0,0,0-.01,0,0,0-.02-.02-.03-.02,0,0,0,0-.01,0,0,0-.02-.01-.03-.02,0,0,0,0,0,0-.01,0-.03-.02-.04-.03,0,0,0,0,0,0-.01,0-.02-.02-.04-.02,0,0,0,0,0,0,0,0-.02-.01-.03-.02,0,0,0,0-.01,0,0,0-.02-.01-.03-.02,0,0,0,0-.01,0-.01,0-.03-.02-.04-.03.01-.07.02-.13.03-.2.5.37.93.71,1.23,1,.19-.45.32-.92.39-1.42h0s0-.02,0-.03h0s0-.04,0-.06h0s0-.05,0-.07c0,0,0-.02,0-.03,0-.01,0-.03,0-.04,0-.01,0-.02,0-.04v-.02s0-.02,0-.04c0,0,0-.02,0-.03s0-.02,0-.03c0-.02,0-.05,0-.07.04,0,.09,0,.16,0-.03.71-.2,1.39-.47,2,.1.1.19.2.25.29.32-.68.52-1.43.56-2.23.05.02.1.04.16.06ZM128.63,14.07h0v.16s-.01.03-.03.04c.02-.02,0-.06-.03-.1h0s-.01-.01-.02-.02c0,0,0,0-.01-.01-.04-.04-.09-.08-.16-.12h0s0,0-.02-.01c0,0,0,0,0,0,0,0-.01,0-.02,0,0,0,0,0,0,0,0,0-.01,0-.02,0h0s-.01,0-.02-.01h0s-.01,0-.02-.01h0s-.01,0-.02,0h0s-.01,0-.02-.01c0,0,0,0,0,0,0,0-.01,0-.02,0,0,0,0,0,0,0,0,0-.01,0-.02,0h0s-.01,0-.02-.01h0s-.02,0-.02-.01h0s-.01,0-.02-.01h0s-.02,0-.02,0h0s-.01,0-.02-.01c0,0,0,0,0,0,0,0-.02,0-.02,0,0,0,0,0,0,0-.06-.02-.13-.05-.19-.08h0s-.03,0-.04-.01t0,0s-.03,0-.04-.01t0,0s-.03,0-.04-.01h0s-.03,0-.04-.02h0s-.03,0-.04-.01h0s-.03,0-.04-.01h0s-.06-.02-.08-.03h0s-.03,0-.04-.01c0,0,0,0,0,0-.01,0-.03,0-.04-.01h0s-.03,0-.04-.01h0s-.03,0-.04-.01h0s-.03,0-.04-.01h0s-.06-.02-.09-.03h0s-.03,0-.04-.01h0s-.03,0-.04-.01h0s-.03,0-.05-.01h0s-.03,0-.05-.01c0,0,0,0,0,0-.02,0-.03,0-.04-.01h0s-.03,0-.04,0h0s-.03,0-.05-.01h0s-.03,0-.04-.01h0s-.03,0-.04,0h0s-.03,0-.05-.01h0s-.03,0-.04,0c0,0,0,0,0,0-.01,0-.03,0-.04,0,0,0,0,0,0,0-.01,0-.03,0-.04,0h0s-.03,0-.05,0h0s-.03,0-.04,0c0,0,0,0,0,0-.02,0-.03,0-.04,0h0s-.03,0-.05,0c-.06-.01-.11-.02-.17-.03v-.17c.07.01.14.02.2.04.53.1,1.01.23,1.39.37-.08-.59-.26-1.15-.51-1.67h0c-.06-.11-.11-.22-.18-.33,0,0,0,0,0,0,0,0,0,0,0-.01.03,0,.09,0,.18,0,.35.63.59,1.33.69,2.07.14.06.27.12.37.17-.07-.79-.29-1.54-.64-2.21.07.01.13.03.2.05h0s.02.03.02.05h0c.33.68.53,1.43.58,2.23.05.04.09.08.1.12ZM128.63,14.6h0v.17s-.03.04-.04.05c.03-.03,0-.08-.02-.1,0-.01-.02-.02-.03-.04h0s-.01-.01-.02-.02c0,0,0,0,0,0h0s-.02-.02-.02-.02c-.03-.02-.07-.05-.11-.08h0c-.09-.06-.21-.12-.34-.18h0s-.02,0-.03-.02c-.04-.02-.07-.03-.11-.04,0,0-.01,0-.01,0-.42-.16-.96-.3-1.47-.4-.06,0-.12-.02-.18-.03v-.17c.07.01.14.02.2.04.02,0,.03,0,.05,0,0,0,0,0,.02,0,.01,0,.02,0,.03,0,0,0,.01,0,.02,0,.01,0,.02,0,.03,0,0,0,.01,0,.02,0,0,0,.02,0,.03,0,0,0,.01,0,.02,0,0,0,.02,0,.03,0,.01,0,.02,0,.02,0,.01,0,.02,0,.03,0,0,0,.02,0,.02,0,0,0,.02,0,.03,0,0,0,.01,0,.02,0,0,0,.02,0,.03,0,0,0,.02,0,.02,0,0,0,.02,0,.03,0,0,0,.01,0,.02,0,0,0,.02,0,.03,0,0,0,.01,0,.02,0,0,0,.02,0,.03,0,0,0,.01,0,.02,0,.01,0,.02,0,.03,0,0,0,.01,0,.02,0,.01,0,.02,0,.04.01,0,0,0,0,0,0,.02,0,.03,0,.05,0h0s.02,0,.04.01c0,0,0,0,.01,0,.01,0,.02,0,.03,0,0,0,.01,0,.02,0,0,0,.02,0,.03,0,0,0,.01,0,.02,0,0,0,.02,0,.03,0,0,0,0,0,.02,0,0,0,.02,0,.02,0,0,0,.01,0,.02,0,0,0,.02,0,.02,0,0,0,.01,0,.02,0,0,0,.02,0,.02,0,0,0,.01,0,.02,0,.01,0,.02,0,.03,0,0,0,.01,0,.01,0,.01,0,.02,0,.03,0,0,0,.01,0,.01,0,0,0,.02,0,.03,0,0,0,0,0,.01,0,0,0,.02,0,.03,0,0,0,0,0,.01,0,.01,0,.02,0,.03.01,0,0,0,0,0,0,.02,0,.05.02.08.03,0,0,0,0,0,0,.01,0,.02,0,.03,0,0,0,0,0,0,0,0,0,.02,0,.03,0,0,0,0,0,.01,0,0,0,.02,0,.02,0,0,0,0,0,.01,0,0,0,.02,0,.02,0,.06.02.12.04.18.07,0,0,0,0,.01,0,0,0,.01,0,.02,0,0,0,0,0,.01,0,0,0,.01,0,.02,0t0,0s.02,0,.02.01c0,0,0,0,0,0,0,0,.01,0,.02,0,0,0,0,0,0,0,0,0,.01,0,.02,0,0,0,0,0,.01,0,0,0,0,0,.02,0,0,0,0,0,0,0,0,0,0,0,.01,0,0,0,0,0,0,0,0,0,.01,0,.02,0,0,0,0,0,0,0,0,0,.02,0,.02.01,0,0,0,0,0,0,0,0,0,0,.01,0,0,0,0,0,0,0,0,0,0,0,.01,0,0,0,0,0,0,0,0,0,0,0,.01,0,0,0,0,0,0,0,0,0,0,0,.01,0,0,0,0,0,0,0,.07.04.12.08.16.11h0s0,0,.01.01c.04.03.06.07.07.1ZM116.19,14.68h0s-.02.02-.03.04c-.01.02-.05.06-.02.1-.01,0-.04-.02-.04-.05v-.17s0,0,0,0c.01-.03.03-.06.07-.1,0,0,0,0,.01-.01h0s.1-.08.16-.11c0,0,0,0,0,0,0,0,0,0,.02,0,0,0,0,0,0,0,0,0,0,0,.01,0,0,0,0,0,0,0,0,0,0,0,.02,0,0,0,0,0,0,0,0,0,.01,0,.02,0,0,0,0,0,0,0,0,0,.01,0,.02,0h0s.03-.02.05-.02c0,0,0,0,0,0,0,0,.01,0,.02,0,0,0,0,0,0,0,0,0,.01,0,.02,0,0,0,0,0,0,0,0,0,.01,0,.02,0,0,0,0,0,0,0,0,0,.02,0,.02,0,0,0,0,0,0,0,.02,0,.04-.02.06-.02,0,0,0,0,0,0,.06-.02.12-.05.19-.07,0,0,.01,0,.02,0,0,0,0,0,.01,0,0,0,.02,0,.02,0,0,0,0,0,.01,0,0,0,.02,0,.03-.01h0s.02,0,.04-.01c0,0,0,0,0,0,0,0,.02,0,.03-.01,0,0,0,0,.01,0,0,0,.02,0,.02,0,0,0,0,0,.02,0,0,0,.02,0,.02,0,0,0,.01,0,.02,0,0,0,.02,0,.02,0,0,0,.01,0,.02,0,0,0,.02,0,.02,0,0,0,.01,0,.02,0,0,0,.02,0,.02,0,0,0,.01,0,.02,0,0,0,.02,0,.02,0,0,0,.01,0,.02,0,0,0,.02,0,.02,0,0,0,.01,0,.02,0,0,0,.02,0,.02,0,0,0,.01,0,.02,0,0,0,.02,0,.02,0,0,0,.01,0,.02,0,0,0,.02,0,.03,0,0,0,.01,0,.02,0,0,0,.02,0,.03,0,0,0,0,0,.01,0,.01,0,.02,0,.03,0,0,0,0,0,0,0,.02,0,.03,0,.05-.01h0s.03,0,.04,0c0,0,.01,0,.02,0,0,0,.02,0,.03,0,0,0,.01,0,.02,0,.01,0,.02,0,.03,0,0,0,.01,0,.02,0,0,0,.02,0,.03,0,0,0,.01,0,.02,0,0,0,.02,0,.03,0,0,0,.02,0,.02,0,.01,0,.02,0,.03,0,0,0,.01,0,.02,0,0,0,.02,0,.03,0,0,0,.02,0,.02,0,0,0,.02,0,.03,0,0,0,.02,0,.02,0,0,0,.02,0,.03,0,0,0,.01,0,.02,0,0,0,.02,0,.03,0,0,0,.01,0,.02,0,.01,0,.02,0,.03,0,0,0,.01,0,.02,0,.01,0,.02,0,.03,0,0,0,.01,0,.02,0,0,0,.02,0,.03,0,0,0,.01,0,.02,0,.02,0,.03,0,.05,0,.07-.02.14-.03.21-.04h0v.17c-.06.01-.12.02-.18.03-.51.1-1.05.24-1.47.4h0c-.05.02-.11.04-.16.06h0c-.14.06-.26.12-.35.18h0c-.05.03-.1.06-.13.1h0s-.02.02-.02.02ZM117.18,17.78s-.03.05.02.08c-.03,0-.06-.02-.07-.05-.02-.03-.07-.11-.07-.11h0s.02-.06.04-.08c0,0,0,0,0,0,0,0,0,0,0,0,.03-.03.07-.07.12-.1,0,0,0,0,.01,0h0s0,0,.01,0c0,0,0,0,0,0,0,0,.02-.01.03-.02h0s0,0,.02,0h0s0,0,.02,0h0s.02-.02.04-.02h0s.01,0,.02-.01h0s.05-.03.08-.05h0s.05-.02.07-.03h0s.1-.04.15-.06c.02,0,.04-.02.06-.02h0s.02,0,.03,0c0,0,0,0,0,0,.02,0,.04-.02.06-.02h0s.02,0,.03,0t0,0s.04-.02.06-.02h0s.02,0,.03,0c0,0,0,0,0,0,.02,0,.04-.02.06-.02,0,0,0,0,0,0,0,0,.02,0,.03,0,0,0,0,0,0,0,.02,0,.04-.01.07-.02,0,0,0,0,0,0,0,0,.02,0,.02,0h.01s.02,0,.03-.01c.25-.07.49-.13.73-.18.03.05.06.11.09.16-.27.05-.53.12-.78.19-.39.1-.94.33-1.08.51ZM116.92,17.39s-.05-.02-.05-.02c0-.02-.07-.13-.07-.13,0,0,0,0,0,0,0-.03.02-.06.04-.09-.36-.72-.59-1.52-.64-2.37.05-.03.1-.05.15-.06.05.83.26,1.62.61,2.33.08-.06.19-.11.31-.17-.33-.68-.54-1.43-.57-2.23.07,0,.12,0,.16,0,.04.77.24,1.5.56,2.16.2-.08.43-.16.66-.22.21-.06.43-.12.65-.17.02.05.04.11.06.16-.23.05-.46.11-.68.17-.01,0-.02,0-.04,0t0,0s-.02,0-.03.01c0,0,0,0,0,0-.01,0-.02,0-.03,0,0,0,0,0,0,0-.01,0-.02,0-.04,0,0,0,0,0,0,0-.02,0-.05.02-.07.02h0s-.03,0-.04.01h0s-.02,0-.04.01h0s-.02,0-.04.01h0s-.05.02-.08.03h0c-.06.02-.13.05-.18.07h0c-.05.02-.1.04-.15.06h0s-.01,0-.02,0h0s-.01,0-.02,0h0s-.02,0-.02.01h0s-.07.03-.1.05h0s-.01,0-.02.01h0s-.01,0-.02,0h0s-.01,0-.02,0h0s-.06.03-.08.05h0c-.06.04-.1.08-.13.11,0,0,0,0,0,0,0,0,0,0,0,0h0s-.02.04-.02.05c0,.01,0,.02.03.03ZM121.96,20.53h0c-1.95-.12-3.66-1.16-4.7-2.68,0-.01-.02-.03-.03-.04h0s.1-.04.15-.06c1.01,1.48,2.66,2.49,4.55,2.63l.02.16ZM122.18,20.55v.09s0,.02-.01.02h-.14s-.02,0-.02-.02v-1.67c.06,0,.11,0,.16.01v1.57Z"/>
              <path class="cls-154" d="M117.58,10.71c1.02-1.33,2.58-2.22,4.36-2.35l-.05.35c-1.16.1-2.22.54-3.07,1.23h-.31v.27c-.1.1-.2.19-.29.29-.24.06-.45.13-.62.2ZM127.72,11.62c-.16-.03-.31-.04-.41-.04.35.63.59,1.33.69,2.07.14.06.27.12.37.17-.07-.79-.29-1.54-.64-2.21ZM122.71,8.7c1.22.07,2.33.53,3.22,1.25h.31v.26c.1.1.2.19.29.29.23.06.44.13.62.19-1.03-1.35-2.63-2.24-4.43-2.34v.35ZM117.76,17.69c-.1,0-.24.02-.38.06,1.01,1.48,2.66,2.49,4.55,2.63l-.05-.36c-1.69-.14-3.17-1.03-4.12-2.33ZM122.71,20.03v.35c1.78-.1,3.34-.97,4.38-2.29-.07-.05-.18-.12-.31-.17-.97,1.21-2.43,2-4.07,2.1ZM117.27,16.87c-.33-.68-.54-1.43-.57-2.23-.1,0-.22.02-.35.07.05.83.26,1.62.61,2.33.08-.06.19-.11.31-.17ZM127.56,16.64c.1.1.19.2.25.29.32-.68.52-1.43.56-2.23-.13-.04-.25-.06-.34-.06-.03.71-.2,1.39-.47,2ZM116.73,13.65c.07-.52.2-1.02.4-1.48-.1-.1-.21-.15-.3-.19-.25.58-.41,1.2-.46,1.85.1-.06.23-.12.37-.17Z"/>
              <g>
                <path class="cls-154" d="M127.62,11.09c-.28-.19-.85-.36-1.39-.48v.34c.69.14,1.3.32,1.57.45l-.17-.3Z"/>
                <path class="cls-154" d="M118.21,10.99c.09-.02.19-.04.29-.06v-.32c-.31.07-.58.14-.81.22.15.04.32.09.52.16Z"/>
                <g>
                  <g>
                    <path class="cls-22" d="M118.49,13.36c-.06.01-.12.02-.17.03-.87.17-1.85.48-2.13.76,0,0-.02.02-.03.03v.33c.25-.24,1.09-.54,2.13-.75.07-.02.14-.03.21-.04v-.36Z"/>
                    <path class="cls-22" d="M128.53,14.15c-.28-.28-1.26-.59-2.13-.76-.06-.01-.11-.02-.17-.03v.35c.07.01.14.02.2.04,1.04.21,1.87.5,2.12.75v-.32s-.02-.02-.03-.03Z"/>
                  </g>
                  <path class="cls-22" d="M118.79,16.58c-.23.05-.46.11-.68.17-.52.15-1.09.38-1.2.56,0,0,0,0,0,0l.19.31c.12-.14.51-.35,1.12-.53.25-.07.49-.13.73-.18-.06-.11-.11-.22-.16-.34Z"/>
                  <g>
                    <rect class="cls-154" x="122.18" y="8.16" width=".36" height="1.79"/>
                    <path class="cls-22" d="M122.36,18.98c-.06,0-.12,0-.17,0v1.63h.36v-1.63c-.06,0-.13,0-.19,0Z"/>
                  </g>
                  <g>
                    <path class="cls-22" d="M127.78,17.19c-.24-.37-.86-.91-1.6-1.46-.05.32-.15.64-.27.93.82.61,1.39,1.11,1.47,1.36l.46-.71s-.02-.08-.06-.13Z"/>
                    <path class="cls-22" d="M118.49,11.28c-.54-.22-.94-.33-1.18-.34h-.01c-.06,0-.11,0-.15.02l-.38.75s.03,0,.05,0c.3,0,.9.2,1.68.55v-.98Z"/>
                  </g>
                </g>
              </g>
              <path class="cls-107" d="M126.23,11.48v.7c.42-.08.79-.18,1.08-.26-.06-.12-.12-.23-.18-.35.08,0,.41-.03.8.08h0s.02.03.02.05c0,0,0,0,.01,0s0,0,.01,0c.02,0,.04-.04-.02-.07-.02,0-.03-.02-.05-.03h0c-.21-.11-.54-.22-.97-.33,0,0,.01.02.02.03-.2.06-.44.12-.71.18ZM128.59,14.27s0-.06-.03-.1v.1s.03,0,.04,0h0ZM127.73,11.21s.02-.03-.04-.08c-.02-.02-.04-.03-.06-.05l.08.14s.02,0,.02,0ZM127.73,17.48h.02s.03,0,.04,0c.03-.01.07-.07.05-.16l-.11.17ZM128.59,14.75h0s0,0,0,0h0s0,0,0,0h0s0,0,0,0h0s0,0,0,0h0s0,0,0,0h0s0,0,0,0c0,0,0,0,0,0,0,0,0,0,0,0h0s-.01-.02-.02-.02c-.01-.02-.03-.03-.04-.04-.11-.09-.28-.19-.49-.27-.04-.02-.08-.03-.12-.05v.06c-.56.17-1.23.3-1.65.38v.35c0,.11,0,.22-.02.32.63-.1,1.19-.22,1.61-.34.02-.15.03-.31.04-.46.12,0,.38,0,.66.13,0,.03,0,.06,0,.09.03-.01.05-.03.06-.04.01-.02,0-.05,0-.06,0,0,0,0,0,0ZM127.26,18.17h0s0,0,0-.01h0s0,0,0-.01h0s-.01-.03-.02-.05c-.05-.11-.2-.28-.42-.48,0,0,0,0,0,0,0,0,0,0,0,0h0c-.24-.22-.56-.49-.97-.8-.19.38-.44.73-.74,1.03-.35.35-.76.63-1.22.83.6-.05,1.16-.13,1.62-.22.16-.02.44-.08.75-.16.13-.13.26-.27.37-.41.34.08.54.27.59.33-.03.04-.06.07-.09.11h.04s.03,0,.04,0c.02,0,.09-.02.06-.14t0,0Z"/>
              <path class="cls-107" d="M117.05,11.16s-.02-.05-.02-.07c0-.05.04-.1.12-.12l-.1.2ZM116.16,14.27v-.1s-.06.07-.03.1c0,0,.02,0,.03,0ZM122.02,8.19s-.04,0-.06,0l-.1.68c.06,0,.11-.01.16-.02v-.67ZM116.61,12.09c.02-.06.04-.11.07-.16.08.02.37.11.57.37-.05.11-.09.23-.13.34.22.19.5.4.84.65.11-.02.21-.05.32-.07.07-.02.14-.03.21-.04v-.75c-.42-.19-.78-.33-1.08-.43h0s0,0-.01,0c0,0,0,0-.01,0h0c-.27-.09-.48-.13-.62-.13-.02,0-.04,0-.05,0,0,0,0,0,0,0h-.01s0,0,0,0h0s-.08.04-.1.13c0,0,0-.01,0-.02,0,0,0,.01,0,.02,0,.02.02.05.03.09ZM118.49,15.11v-.35c-.42-.07-1.09-.2-1.65-.38v-.06c-.06.02-.12.05-.18.07-.05.02-.1.04-.15.06,0,0,0,0,0,0,0,0,0,0,0,0-.13.06-.23.13-.3.19-.01,0-.02.02-.03.03,0,0-.01.02-.02.02h0s0,0,0,0h0s0,0,0,0h0s0,0,0,0c0,0,0,0,0,0h0s0,0,0,0h0s0,0,0,0h0s0,0,0,0h0s0,0,0,0h0s0,0,0,0h0s0,0,0,0h0s0,0,0,0h0s0,0,0,0h0s0,0,0,0h0v.02h0s0,0,0,0h0s0,0,0,0h0s0,0,0,0t0,0h0s.04.03.06.04c0-.03,0-.06,0-.09.28-.14.55-.14.66-.13,0,.15.02.31.04.46.42.12.98.24,1.61.34-.01-.11-.02-.22-.02-.33ZM121.96,20.53s.04,0,.06,0v-.67c-.06,0-.11,0-.16-.02l.1.68ZM119.63,17.83s-.02-.02-.04-.04c-.58-.09-1.18-.2-1.8-.34,0,0-.01-.02-.02-.02-.28.11-.5.23-.59.35-.01.01-.03.05.02.08h0s.06.02.09.04c-.02-.03-.04-.06-.06-.09.34-.16.67-.12.74-.11.15.2.31.38.48.55.67.17,1.48.31,2.36.39-.44-.2-.84-.48-1.18-.81ZM116.91,17.31s-.02.04-.02.05c0,.01,0,.02.03.03,0,0,0,0-.01,0,.02,0,.03,0,.05,0l-.05-.08Z"/>
              <g>
                <g>
                  <path class="cls-27" d="M122.34,19.03c-2.34,0-3.91-1.98-3.91-3.83v-5.27h7.82v5.27c0,1.85-1.57,3.83-3.91,3.83h0Z"/>
                  <path class="cls-89" d="M118.7,10.19v5.01c0,1.72,1.46,3.57,3.65,3.57s3.65-1.85,3.65-3.57v-5.01h-7.29ZM124.51,15.2c0,.89-.82,2.09-2.17,2.09s-2.17-1.2-2.17-2.09v-3.53h4.34v3.53Z"/>
                </g>
                <g>
                  <path class="cls-22" d="M119.93,11.34h-.02l-.03-.33s.08-.04.08-.08c0-.05-.04-.08-.08-.08h0v-.15s0,0,0,0h.03s.02,0,.02-.02v-.1h-.05v.05h-.07v-.05h-.06v.05h-.07v-.05h-.05v.1s0,.02.01.02h.04v.15h-.1l-.02-.32h.03s.01,0,.01-.02v-.1h-.05v.05h-.07v-.05h-.05v.05h-.07v-.05h-.05v.1s0,.01.02.02h.02l-.02.32h-.09v-.15s0,0,0,0h.03s.02,0,.02-.02v-.1h-.05v.05h-.07v-.05h-.05v.05h-.07v-.05h-.05v.1s0,.02.02.02h.03v.15h-.02s-.08.03-.08.08c0,.04.03.08.08.08l-.03.33h-.02s-.08.04-.08.08.04.08.08.08h.95s.08-.04.08-.08-.04-.08-.08-.08ZM119.23,11.34c.01-.28.22-.34.23-.34h0s.21.06.22.34h-.45Z"/>
                  <path class="cls-22" d="M122.84,11.34h-.02l-.03-.33s.08-.04.08-.08c0-.05-.04-.08-.08-.08h-.01v-.15s0,0,0,0h.03s.01,0,.01-.02v-.1h-.05v.05h-.07v-.05h-.05v.05h-.07v-.05h-.05v.1s.01.02.02.02h.04v.15h-.1l-.02-.32h.02s.02,0,.02-.02v-.1h-.05v.05h-.07v-.05h-.05v.05h-.07v-.05h-.05v.1s0,.01.02.02h.03l-.02.32h-.09v-.15s0,0,0,0h.03s.02,0,.02-.02v-.1h-.05v.05h-.07v-.05h-.05v.05h-.07v-.05h-.05v.1s0,.02.02.02h.04v.15h-.02s-.08.03-.08.08c0,.04.03.08.08.08l-.03.33h-.01s-.08.04-.08.08.03.08.08.08h.95s.08-.04.08-.08-.04-.08-.08-.08ZM122.13,11.34c.01-.28.22-.34.23-.34h0s.21.06.23.34h-.45Z"/>
                  <path class="cls-22" d="M125.71,11.34h-.02l-.03-.33s.08-.04.08-.08c0-.05-.04-.08-.08-.08h0v-.15s0,0,0,0h.03s.02,0,.02-.02v-.1h-.05v.05h-.07v-.05h-.05v.05h-.07v-.05h-.05v.1s0,.02.02.02h.03v.15h-.1l-.02-.32h.03s.02,0,.02-.02v-.1h-.05v.05h-.07v-.05h-.05v.05h-.07v-.05h-.05v.1s0,.01.02.02h.02l-.02.32h-.1v-.15s0,0,0,0h.03s.02,0,.02-.02v-.1h-.05v.05h-.07v-.05h-.05v.05h-.07v-.05h-.05v.1s0,.02.02.02h.04v.15h-.02s-.08.03-.08.08c0,.04.03.08.07.08l-.03.33h-.02s-.08.04-.08.08.04.08.08.08h.95s.08-.04.08-.08-.03-.08-.08-.08ZM125.01,11.34c.01-.28.22-.34.22-.34h0s.21.06.22.34h-.45Z"/>
                  <path class="cls-22" d="M119.93,14.33h-.02l-.03-.33s.08-.04.08-.08c0-.05-.04-.08-.08-.08h0v-.15s0,0,0,0h.03s.02,0,.02-.02v-.1h-.05v.05h-.07v-.05h-.06v.05h-.07v-.05h-.05v.1s0,.02.01.02h.04v.15h-.1l-.02-.32h.03s.01,0,.01-.02v-.1h-.05v.05h-.07v-.05h-.05v.05h-.07v-.05h-.05v.1s0,.02.02.02h.02l-.02.32h-.09v-.15s0,0,0,0h.03s.02,0,.02-.02v-.1h-.05v.05h-.07v-.05h-.05v.05h-.07v-.05h-.05v.1s0,.02.02.02h.03v.15h-.02s-.08.04-.08.08c0,.04.03.07.08.08l-.03.33h-.02s-.08.03-.08.08c0,.04.04.08.08.08h.95s.08-.03.08-.08c0-.05-.04-.08-.08-.08ZM119.23,14.33c.01-.28.22-.34.23-.34h0s.21.06.22.34h-.45Z"/>
                  <path class="cls-22" d="M125.71,14.33h-.02l-.03-.33s.08-.04.08-.08c0-.05-.04-.08-.08-.08h0v-.15s0,0,0,0h.03s.02,0,.02-.02v-.1h-.05v.05h-.07v-.05h-.05v.05h-.07v-.05h-.05v.1s0,.02.02.02h.03v.15h-.1l-.02-.32h.03s.02,0,.02-.02v-.1h-.05v.05h-.07v-.05h-.05v.05h-.07v-.05h-.05v.1s0,.02.02.02h.02l-.02.32h-.1v-.15s0,0,0,0h.03s.02,0,.02-.02v-.1h-.05v.05h-.07v-.05h-.05v.05h-.07v-.05h-.05v.1s0,.02.02.02h.04v.15h-.02s-.08.04-.08.08c0,.04.03.07.07.08l-.03.33h-.02s-.08.03-.08.08c0,.04.04.08.08.08h.95s.08-.03.08-.08c0-.05-.03-.08-.08-.08ZM125.01,14.33c.01-.28.22-.34.22-.34h0s.21.06.22.34h-.45Z"/>
                  <path class="cls-22" d="M120.78,16.94h-.01s-.26-.2-.26-.2c.03-.03.03-.08,0-.11-.03-.03-.09-.03-.12,0h0s-.11-.09-.11-.09h0s.02-.03.02-.03c0,0,0-.01,0-.02l-.07-.07-.03.03.04.04-.05.05-.04-.04-.04.03.04.04-.05.05-.03-.04-.04.03.07.07s.02,0,.03,0l.02-.02h0s.1.1.1.1l-.07.06-.24-.21.02-.02s0-.02,0-.02l-.07-.07-.04.03.04.04-.05.05-.04-.04-.04.04.04.03-.05.05-.04-.04-.04.03.07.07s.02,0,.02,0l.02-.02.21.24-.06.07-.11-.1h0s.02-.02.02-.02c0,0,0-.02,0-.02l-.08-.07-.03.03.04.03-.05.05-.04-.04-.04.04.04.04-.05.05-.04-.03-.03.03.07.07s.02,0,.02,0l.02-.02h0s.1.1.1.1h0s-.03.1,0,.12c.03.03.08.03.11,0l.21.26h-.01s-.03.1,0,.13c.03.03.09.03.12,0l.67-.67s.03-.08,0-.11c-.03-.04-.09-.04-.12,0ZM120.28,17.44c-.19-.21-.08-.4-.08-.4h0s.2-.11.4.08l-.32.32Z"/>
                  <path class="cls-22" d="M123.84,16.94s-.03.08,0,.11l.67.67s.08.03.12,0c.03-.03.03-.09,0-.11h-.01s.21-.27.21-.27c.03.02.08.02.11,0,.03-.03.03-.08,0-.12h0s.1-.11.1-.11h0s.02.02.02.02c0,0,.02,0,.02,0l.07-.07-.03-.03-.04.03-.05-.05.03-.04-.03-.04-.04.04-.05-.05.04-.03-.03-.03-.07.07s0,.02,0,.02l.02.02h0s-.11.1-.11.1l-.06-.07.21-.24.02.02s.02,0,.02,0l.07-.07-.03-.03-.04.04-.05-.05.04-.03-.04-.04-.03.04-.05-.05.04-.04-.03-.03-.07.07s0,.02,0,.02l.02.02-.24.21-.06-.06.1-.11h0s.02.03.02.03c0,0,.02,0,.02,0l.08-.07-.04-.03-.04.04-.05-.05.04-.04-.04-.03-.04.04-.05-.05.04-.04-.04-.03-.07.07s0,.02,0,.02l.02.02h0s-.11.1-.11.1h0s-.09-.04-.12,0c-.03.03-.03.08,0,.11l-.26.21h0s-.08-.05-.12,0ZM124.14,17.12c.21-.19.4-.08.4-.08h0s.1.2-.08.4l-.32-.32Z"/>
                </g>
                <g>
                  <path class="cls-19" d="M122.61,16.19c-.05,0-.09.05-.09.09,0,.06.04.1.09.1s.1-.04.1-.1c0-.05-.04-.09-.1-.09"/>
                  <path class="cls-19" d="M122.09,16.2s-.09.04-.09.09.05.1.09.1c.06,0,.1-.04.1-.1s-.04-.09-.1-.09"/>
                  <g>
                    <path class="cls-129" d="M122.34,13.4c.21,0,.48-.17.48-.51v-.69h-.96v.69c0,.34.27.51.48.51Z"/>
                    <g>
                      <path class="cls-19" d="M122.21,12.47c0-.06-.05-.11-.11-.11s-.11.05-.11.11.05.11.11.11.11-.05.11-.11Z"/>
                      <path class="cls-19" d="M122.45,12.72c0-.06-.05-.11-.11-.11s-.11.05-.11.11.05.11.11.11.11-.05.11-.11Z"/>
                      <path class="cls-19" d="M122.7,12.96c0-.06-.05-.11-.11-.11s-.11.05-.11.11.05.11.11.11.11-.05.11-.11Z"/>
                      <path class="cls-19" d="M122.59,12.58c.06,0,.11-.05.11-.11s-.05-.11-.11-.11-.11.05-.11.11.05.11.11.11Z"/>
                      <path class="cls-19" d="M122.1,13.07c.06,0,.11-.05.11-.11s-.05-.11-.11-.11-.11.05-.11.11.05.11.11.11Z"/>
                    </g>
                  </g>
                  <g>
                    <path class="cls-129" d="M122.34,15.06c.21,0,.48-.17.48-.51v-.69h-.96v.69c0,.34.27.51.48.51Z"/>
                    <g>
                      <path class="cls-19" d="M122.21,14.13c0-.06-.05-.11-.11-.11s-.11.05-.11.11.05.11.11.11.11-.05.11-.11Z"/>
                      <path class="cls-19" d="M122.45,14.38c0-.06-.05-.11-.11-.11s-.11.05-.11.11.05.11.11.11.11-.05.11-.11Z"/>
                      <path class="cls-19" d="M122.7,14.63c0-.06-.05-.11-.11-.11s-.11.05-.11.11.05.11.11.11.11-.05.11-.11Z"/>
                      <path class="cls-19" d="M122.59,14.24c.06,0,.11-.05.11-.11s-.05-.11-.11-.11-.11.05-.11.11.05.11.11.11Z"/>
                      <path class="cls-19" d="M122.1,14.73c.06,0,.11-.05.11-.11s-.05-.11-.11-.11-.11.05-.11.11.05.11.11.11Z"/>
                    </g>
                  </g>
                  <g>
                    <path class="cls-129" d="M121.02,15.06c.21,0,.48-.17.48-.51v-.69h-.96v.69c0,.34.27.51.48.51Z"/>
                    <g>
                      <path class="cls-19" d="M120.88,14.13c0-.06-.05-.11-.11-.11s-.11.05-.11.11.05.11.11.11.11-.05.11-.11Z"/>
                      <path class="cls-19" d="M121.12,14.38c0-.06-.05-.11-.11-.11s-.11.05-.11.11.05.11.11.11.11-.05.11-.11Z"/>
                      <path class="cls-19" d="M121.37,14.63c0-.06-.05-.11-.11-.11s-.11.05-.11.11.05.11.11.11.11-.05.11-.11Z"/>
                      <path class="cls-19" d="M121.26,14.24c.06,0,.11-.05.11-.11s-.05-.11-.11-.11-.11.05-.11.11.05.11.11.11Z"/>
                      <path class="cls-19" d="M120.77,14.73c.06,0,.11-.05.11-.11s-.05-.11-.11-.11-.11.05-.11.11.05.11.11.11Z"/>
                    </g>
                  </g>
                  <g>
                    <path class="cls-129" d="M123.67,15.06c.21,0,.48-.17.48-.51v-.69h-.96v.69c0,.34.27.51.48.51Z"/>
                    <g>
                      <path class="cls-19" d="M123.54,14.13c0-.06-.05-.11-.11-.11s-.11.05-.11.11.05.11.11.11.11-.05.11-.11Z"/>
                      <path class="cls-19" d="M123.78,14.38c0-.06-.05-.11-.11-.11s-.11.05-.11.11.05.11.11.11.11-.05.11-.11Z"/>
                      <path class="cls-19" d="M124.03,14.63c0-.06-.05-.11-.11-.11s-.11.05-.11.11.05.11.11.11.11-.05.11-.11Z"/>
                      <path class="cls-19" d="M123.92,14.24c.06,0,.11-.05.11-.11s-.05-.11-.11-.11-.11.05-.11.11.05.11.11.11Z"/>
                      <path class="cls-19" d="M123.43,14.73c.06,0,.11-.05.11-.11s-.05-.11-.11-.11-.11.05-.11.11.05.11.11.11Z"/>
                    </g>
                  </g>
                  <g>
                    <path class="cls-129" d="M122.34,16.72c.21,0,.48-.17.48-.51v-.69h-.96v.69c0,.34.27.51.48.51Z"/>
                    <g>
                      <path class="cls-19" d="M122.21,15.79c0-.06-.05-.11-.11-.11s-.11.05-.11.11.05.11.11.11.11-.05.11-.11Z"/>
                      <path class="cls-19" d="M122.45,16.04c0-.06-.05-.11-.11-.11s-.11.05-.11.11.05.11.11.11.11-.05.11-.11Z"/>
                      <path class="cls-19" d="M122.7,16.29c0-.06-.05-.11-.11-.11s-.11.05-.11.11.05.11.11.11.11-.05.11-.11Z"/>
                      <path class="cls-19" d="M122.59,15.9c.06,0,.11-.05.11-.11s-.05-.11-.11-.11-.11.05-.11.11.05.11.11.11Z"/>
                      <path class="cls-19" d="M122.1,16.4c.06,0,.11-.05.11-.11s-.05-.11-.11-.11-.11.05-.11.11.05.11.11.11Z"/>
                    </g>
                  </g>
                </g>
              </g>
            </g>
          </g>
          <g>
            <path class="cls-137" d="M147.47,14.8l-2.36-3.78h-.22v2.76c.32.03.62.08.89.16v.87h-3.42v-.86c.17-.04.35-.08.54-.1.19-.03.38-.05.58-.06v-6.7c-.2-.02-.39-.04-.58-.06-.19-.03-.37-.06-.54-.1v-.86h1.01c.09,0,.21,0,.38,0,.16,0,.36-.01.58-.02.22,0,.46-.01.71-.02.25,0,.52,0,.78,0,.45,0,.86.04,1.24.13.38.09.7.22.97.41.27.19.48.43.63.73.15.3.22.67.22,1.1,0,.33-.06.63-.17.9-.11.27-.27.51-.48.71-.21.2-.45.37-.73.51-.28.13-.59.23-.93.28.09.11.18.23.27.36.09.13.17.25.24.37l1.51,2.27c.14.02.29.04.44.06.16.03.32.06.49.09v.88h-2.06ZM146.96,7.48c-.29-.22-.74-.32-1.33-.32-.14,0-.27,0-.39,0-.12,0-.24.01-.34.02v2.77c.07,0,.16.02.28.02.12,0,.25,0,.41,0,.57,0,1.01-.13,1.33-.4s.48-.62.48-1.06c0-.48-.15-.83-.44-1.05Z"/>
            <path class="cls-137" d="M150.13,14.8v-.86c.17-.04.35-.08.54-.1.19-.03.38-.05.58-.06v-6.71c-.2-.02-.39-.04-.58-.06-.19-.03-.37-.06-.54-.1v-.84h5.79v2.09h-1.02c-.03-.18-.06-.36-.09-.52s-.05-.32-.06-.46h-2.09v2.63h1.67c.02-.15.04-.29.06-.42.03-.13.06-.26.1-.38h.88v2.64h-.88c-.04-.12-.08-.25-.1-.4s-.05-.28-.06-.41h-1.67v2.84h2.1c.02-.16.04-.32.06-.49s.06-.35.1-.54h1.02v2.18h-5.82Z"/>
            <path class="cls-137" d="M163.37,9.81c-.16.36-.39.68-.69.94-.3.26-.66.47-1.08.62-.42.15-.88.23-1.39.23h-.31c-.11,0-.22,0-.34-.03v2.2c.2.02.39.04.58.06.19.03.37.06.54.1v.86h-3.65v-.86c.17-.04.35-.08.54-.1.19-.03.38-.05.58-.06v-6.7c-.2-.02-.39-.04-.58-.06-.19-.03-.37-.06-.54-.1v-.86h.98c.1,0,.24,0,.42,0,.18,0,.37-.01.59-.02.22,0,.44-.01.67-.02.23,0,.46,0,.69,0,1.05,0,1.84.24,2.39.71.55.47.82,1.11.82,1.92,0,.42-.08.82-.24,1.18ZM161.7,7.57c-.3-.28-.77-.42-1.41-.42h-.38c-.11,0-.23,0-.35.03v3.2c.1.02.21.03.31.04.1,0,.21.01.31.01.6,0,1.07-.16,1.43-.46.35-.3.53-.71.53-1.22s-.15-.89-.45-1.17Z"/>
            <path class="cls-137" d="M171.89,7.07v4.38c0,1.18-.3,2.05-.9,2.62-.6.57-1.48.86-2.64.86-.69,0-1.25-.09-1.68-.26-.43-.17-.77-.4-1.01-.69-.24-.29-.41-.62-.5-.99-.09-.37-.14-.76-.14-1.17v-4.74c-.15-.02-.29-.04-.44-.06-.15-.03-.29-.06-.41-.09v-.87h3.24v.87c-.16.04-.32.08-.49.1-.17.02-.33.04-.5.06v4.64c0,.29.03.57.08.82.06.25.16.47.3.65.15.18.35.32.62.43.26.1.6.16,1,.16.35,0,.66-.04.92-.12.26-.08.47-.21.64-.38.17-.18.29-.41.38-.69.08-.29.12-.63.12-1.04v-4.46c-.16-.02-.33-.04-.51-.06-.17-.02-.33-.05-.48-.1v-.87h3.24v.87c-.28.07-.56.12-.86.16ZM168.24,5.43l-.52-.79,2.03-1.43.62.95-2.14,1.27Z"/>
            <path class="cls-137" d="M180.4,13.06c-.11.32-.29.6-.55.87s-.61.48-1.05.65c-.44.17-1,.26-1.67.26-.27,0-.61,0-1.02-.02s-.86-.02-1.35-.02h-1.13v-.86c.17-.04.35-.08.54-.1.19-.03.38-.05.58-.06v-6.7c-.2-.02-.39-.04-.58-.06-.19-.03-.37-.06-.54-.1v-.86h1.09c.33,0,.74,0,1.24-.02.5-.01,1.01-.02,1.54-.02.96,0,1.68.19,2.16.56.48.37.73.89.73,1.57,0,.45-.14.86-.41,1.22s-.63.62-1.08.78v.03c.29.05.53.14.75.27.21.13.38.29.52.47.13.18.24.38.3.6.07.22.1.44.1.66,0,.29-.05.59-.16.9ZM178.82,7.86c-.05-.15-.14-.27-.27-.38-.13-.11-.3-.19-.51-.25-.21-.06-.47-.09-.78-.09-.2,0-.39,0-.57,0-.18,0-.36.01-.53.02v2.59c.11,0,.23.01.35.01h.4c.66,0,1.15-.13,1.49-.38.34-.25.51-.6.51-1.04,0-.18-.03-.35-.08-.49ZM178.91,11.55c-.11-.17-.26-.31-.44-.42-.19-.11-.41-.19-.67-.23s-.54-.07-.86-.07h-.38c-.08,0-.15,0-.23,0-.07,0-.14,0-.19,0v2.79c.24.04.58.06,1.02.06.65,0,1.13-.14,1.43-.42.31-.28.46-.64.46-1.08,0-.25-.05-.46-.16-.63Z"/>
            <path class="cls-137" d="M181.58,14.8v-.86c.17-.04.35-.08.54-.1.19-.03.38-.05.58-.06v-6.7c-.2-.02-.39-.04-.58-.06s-.37-.06-.54-.1v-.86h3.65v.86c-.17.04-.35.08-.54.1s-.38.05-.58.06v6.56h1.98c.04-.34.1-.71.18-1.13h1.01v2.29h-5.7Z"/>
            <path class="cls-137" d="M187.79,14.8v-.86c.17-.04.35-.08.54-.1.19-.03.38-.05.58-.06v-6.7c-.2-.02-.39-.04-.58-.06s-.37-.06-.54-.1v-.86h3.65v.86c-.17.04-.35.08-.54.1s-.38.05-.58.06v6.7c.2.02.39.04.58.06.19.03.37.06.54.1v.86h-3.65Z"/>
            <path class="cls-137" d="M197.69,8.51c-.04-.22-.08-.42-.1-.6-.02-.19-.04-.36-.06-.54-.2-.05-.39-.09-.56-.1-.18-.02-.36-.03-.55-.03-.42,0-.79.08-1.11.24-.32.16-.58.38-.79.66-.21.28-.37.62-.47,1.01-.1.39-.16.82-.16,1.29,0,.5.05.95.16,1.34.11.39.28.73.51,1,.23.27.53.48.89.62s.8.21,1.31.21c.33,0,.67-.04,1.02-.11.35-.07.66-.17.94-.29l.09,1.3c-.36.12-.74.22-1.14.29-.4.07-.81.11-1.23.11-1.37,0-2.4-.37-3.09-1.12-.69-.75-1.03-1.79-1.03-3.12,0-.69.09-1.33.27-1.91.18-.58.44-1.08.8-1.49.36-.41.81-.74,1.36-.97.55-.23,1.2-.35,1.95-.35.33,0,.67.02,1.01.06.35.04.69.1,1.02.18v2.31h-1.05Z"/>
            <path class="cls-137" d="M205.03,14.8v-.86c.15-.03.31-.06.48-.09.17-.03.34-.05.51-.06l-.45-1.23h-3.46l-.44,1.23c.16.02.33.04.51.06.17.03.33.06.48.09v.86h-3.15v-.86c.11-.03.24-.06.37-.08.13-.02.26-.04.38-.06l2.79-7.75h1.7l2.83,7.75c.12.02.25.04.38.06s.26.05.37.08v.86h-3.28ZM204.22,8.81c-.09-.22-.16-.44-.22-.66-.06-.22-.12-.44-.17-.69h-.03c-.04.22-.1.45-.17.69-.07.23-.15.47-.23.7l-.95,2.6h2.73l-.97-2.64Z"/>
            <path class="cls-137" d="M148.71,22.27c-.16.36-.39.68-.69.94-.3.26-.66.47-1.08.62-.42.15-.88.23-1.39.23h-.31c-.11,0-.22,0-.34-.03v2.2c.2.02.39.04.58.06.19.03.37.06.54.1v.86h-3.65v-.86c.17-.04.35-.08.54-.1.19-.03.38-.05.58-.06v-6.7c-.2-.02-.39-.04-.58-.06-.19-.03-.37-.06-.54-.1v-.86h.98c.1,0,.24,0,.42,0,.18,0,.37-.01.59-.02.22,0,.44-.01.67-.02.23,0,.46,0,.69,0,1.05,0,1.84.24,2.39.71.55.47.82,1.11.82,1.92,0,.42-.08.82-.24,1.18ZM147.04,20.03c-.3-.28-.77-.42-1.41-.42h-.38c-.11,0-.23,0-.35.03v3.2c.1.02.21.03.31.04.1,0,.21.01.31.01.6,0,1.07-.16,1.43-.46.35-.3.53-.71.53-1.22s-.15-.89-.45-1.17Z"/>
            <path class="cls-137" d="M157.47,24.72c-.22.57-.52,1.05-.9,1.45-.38.4-.83.7-1.33.91-.51.21-1.05.31-1.63.31-.67,0-1.24-.1-1.74-.31-.49-.21-.9-.5-1.23-.89-.33-.38-.57-.85-.73-1.39-.16-.54-.24-1.15-.24-1.82,0-.73.11-1.37.33-1.94.22-.57.52-1.05.9-1.44.38-.39.82-.69,1.33-.9.51-.21,1.05-.31,1.63-.31s1.12.09,1.61.27c.48.18.9.46,1.24.82.35.37.61.83.8,1.37.19.55.29,1.19.29,1.92s-.11,1.37-.33,1.94ZM155.64,20.46c-.45-.57-1.08-.85-1.91-.85-.34,0-.66.07-.98.2s-.59.34-.82.6-.42.6-.57,1c-.14.4-.21.86-.21,1.39,0,.49.05.95.16,1.36s.26.76.47,1.05c.21.29.47.52.79.68.32.16.7.24,1.13.24.32,0,.64-.06.95-.19.31-.13.59-.33.84-.6s.44-.6.59-1.01.22-.88.22-1.42c0-1.06-.22-1.88-.67-2.45Z"/>
            <path class="cls-137" d="M163.74,27.26l-2.36-3.78h-.22v2.76c.32.03.62.08.89.16v.87h-3.42v-.86c.17-.04.35-.08.54-.1.19-.03.38-.05.58-.06v-6.7c-.2-.02-.39-.04-.58-.06-.19-.03-.37-.06-.54-.1v-.86h1.01c.09,0,.21,0,.38,0,.16,0,.36-.01.58-.02.22,0,.46-.01.71-.02.25,0,.52,0,.78,0,.45,0,.86.04,1.24.13.38.09.7.22.97.41.27.19.48.43.63.73.15.3.22.67.22,1.1,0,.33-.06.63-.17.9-.11.27-.27.51-.48.71-.21.2-.45.37-.73.51-.28.13-.59.23-.93.28.09.11.18.23.27.36.09.13.17.25.24.37l1.51,2.27c.14.02.29.04.44.06.16.03.32.06.49.09v.88h-2.06ZM163.22,19.94c-.29-.22-.74-.32-1.33-.32-.14,0-.27,0-.39,0-.12,0-.24.01-.34.02v2.77c.07,0,.16.02.28.02.12,0,.25,0,.41,0,.57,0,1.01-.13,1.33-.4s.48-.62.48-1.06c0-.48-.15-.83-.44-1.05Z"/>
            <path class="cls-137" d="M172.23,20.83c-.04-.22-.08-.43-.11-.62-.03-.19-.05-.37-.07-.53h-1.58v6.56c.2.02.39.04.58.06.19.03.37.06.54.1v.85h-3.65v-.85c.17-.04.35-.08.54-.1.19-.03.38-.05.58-.06v-6.56h-1.59c-.02.16-.04.34-.06.53-.03.19-.06.4-.1.62h-1.01v-2.32h6.95v2.32h-1.01Z"/>
            <path class="cls-137" d="M181.54,19.54v4.38c0,1.18-.3,2.05-.9,2.62-.6.57-1.48.86-2.64.86-.69,0-1.25-.09-1.68-.26-.43-.17-.77-.4-1.01-.69-.24-.29-.41-.62-.5-.99-.09-.37-.14-.76-.14-1.17v-4.74c-.15-.02-.29-.04-.44-.06-.15-.03-.29-.06-.41-.09v-.87h3.24v.87c-.16.04-.32.08-.49.1s-.33.04-.5.06v4.64c0,.29.03.57.08.82.06.25.16.47.3.65.15.18.35.32.62.43.26.1.6.16,1,.16.35,0,.66-.04.92-.12.26-.08.47-.21.64-.38.17-.18.29-.41.38-.69.08-.29.12-.63.12-1.04v-4.46c-.16-.02-.33-.04-.51-.06s-.33-.05-.48-.1v-.87h3.24v.87c-.28.07-.56.12-.86.16Z"/>
            <path class="cls-137" d="M190.96,23.7c-.13.02-.27.04-.41.06v3.1c-.44.17-.92.3-1.43.4-.51.09-1.02.14-1.52.14-.67,0-1.28-.1-1.82-.3-.54-.2-1-.48-1.37-.85-.38-.37-.67-.82-.87-1.35s-.3-1.14-.3-1.81.11-1.31.33-1.89c.22-.57.54-1.07.95-1.48.41-.41.91-.74,1.5-.97.59-.23,1.26-.34,2-.34.41,0,.81.03,1.2.09s.79.13,1.2.23v2.2h-1.05c-.04-.2-.08-.39-.1-.58-.03-.19-.05-.36-.06-.54-.22-.05-.43-.09-.65-.12-.22-.03-.43-.05-.64-.05-.44,0-.85.07-1.23.21-.38.14-.71.35-1,.63-.29.28-.51.63-.68,1.04-.16.41-.25.89-.25,1.44,0,1.02.27,1.8.81,2.36.54.56,1.28.83,2.23.83.25,0,.49-.02.72-.05.23-.03.44-.09.64-.16v-2.15c-.2-.02-.39-.04-.58-.06-.19-.03-.36-.06-.52-.1v-.86h3.29v.87c-.12.03-.25.06-.38.08Z"/>
            <path class="cls-137" d="M199.74,19.54v4.38c0,1.18-.3,2.05-.9,2.62s-1.48.86-2.64.86c-.69,0-1.25-.09-1.68-.26-.43-.17-.77-.4-1.01-.69-.24-.29-.41-.62-.5-.99-.09-.37-.14-.76-.14-1.17v-4.74c-.15-.02-.29-.04-.44-.06-.15-.03-.29-.06-.41-.09v-.87h3.24v.87c-.16.04-.32.08-.49.1-.17.02-.33.04-.5.06v4.64c0,.29.03.57.08.82s.16.47.3.65c.15.18.35.32.62.43s.6.16,1,.16c.35,0,.66-.04.92-.12.26-.08.47-.21.64-.38.17-.18.29-.41.38-.69.08-.29.12-.63.12-1.04v-4.46c-.16-.02-.33-.04-.51-.06-.17-.02-.33-.05-.48-.1v-.87h3.24v.87c-.28.07-.56.12-.86.16Z"/>
            <path class="cls-137" d="M201.48,27.26v-.86c.17-.04.35-.08.54-.1.19-.03.38-.05.58-.06v-6.71c-.2-.02-.39-.04-.58-.06-.19-.03-.37-.06-.54-.1v-.84h5.79v2.09h-1.02c-.03-.18-.06-.36-.09-.52-.03-.17-.05-.32-.06-.46h-2.09v2.63h1.67c.02-.15.04-.29.06-.42.03-.13.06-.26.1-.38h.88v2.64h-.88c-.04-.12-.08-.25-.1-.4-.03-.14-.05-.28-.06-.41h-1.67v2.84h2.1c.02-.16.04-.32.06-.49.03-.17.06-.35.1-.54h1.02v2.18h-5.82Z"/>
            <path class="cls-137" d="M213.8,25.73c-.16.34-.38.63-.66.87-.29.25-.63.44-1.04.58-.41.14-.87.21-1.38.21-.71,0-1.35-.07-1.92-.22v-2.2h1.04c.03.2.06.39.09.58.03.19.05.36.06.52.12.03.25.05.39.06.14.02.27.03.39.03.25,0,.48-.03.7-.08s.4-.13.56-.24c.16-.11.29-.25.38-.42s.14-.38.14-.61c0-.3-.1-.54-.29-.72-.19-.18-.43-.34-.72-.47-.29-.13-.6-.25-.94-.37-.34-.12-.65-.27-.94-.46-.29-.19-.52-.43-.72-.72-.19-.29-.29-.67-.29-1.14,0-.37.07-.71.21-1.03s.35-.58.62-.81c.27-.22.6-.4,1-.52.39-.13.84-.19,1.34-.19.31,0,.61.02.89.05.28.03.57.08.86.14v2.11h-1.04c-.04-.19-.08-.38-.1-.56-.02-.18-.04-.35-.06-.51-.07-.02-.16-.03-.28-.05-.12-.01-.23-.02-.33-.02-.55,0-.96.11-1.23.34s-.41.52-.41.89c0,.29.1.53.29.71.19.18.43.33.72.46.29.13.6.26.94.38.34.13.65.28.94.47.29.19.53.42.72.71.19.29.29.66.29,1.11,0,.41-.08.78-.23,1.11Z"/>
            <path class="cls-137" d="M220.02,27.26v-.86c.15-.03.31-.06.48-.09.17-.03.34-.05.51-.06l-.45-1.23h-3.46l-.44,1.23c.16.02.33.04.51.06.17.03.33.06.48.09v.86h-3.15v-.86c.11-.03.24-.06.37-.08s.26-.04.38-.06l2.79-7.75h1.7l2.83,7.75c.12.02.25.04.38.06.13.02.26.05.37.08v.86h-3.28ZM219.22,21.27c-.09-.22-.16-.44-.22-.66-.06-.22-.12-.44-.17-.69h-.03c-.04.22-.1.45-.17.69-.07.23-.15.47-.23.7l-.95,2.6h2.73l-.97-2.64Z"/>
          </g>
        </g>
        <g>
          <path class="cls-63" d="M52.43,10.57c0,4.05-3.33,6.49-6.87,6.49h-2.95v5.23h-4.36V4.08h7.31c3.54,0,6.87,2.44,6.87,6.49ZM48.07,10.57c0-1.49-1.08-2.39-2.51-2.39h-2.95v4.77h2.95c1.44,0,2.51-.9,2.51-2.39Z"/>
          <path class="cls-63" d="M60.48,17.06h-2.15v5.23h-4.36V4.08h7.31c3.54,0,6.87,2.44,6.87,6.49,0,2.59-1.36,4.54-3.28,5.59l3.54,6.13h-4.9l-3.03-5.23ZM58.32,12.95h2.95c1.44,0,2.51-.9,2.51-2.39s-1.08-2.39-2.51-2.39h-2.95v4.77Z"/>
          <path class="cls-63" d="M76.97,17.06h-2.15v5.23h-4.36V4.08h7.31c3.54,0,6.87,2.44,6.87,6.49,0,2.59-1.36,4.54-3.28,5.59l3.54,6.13h-4.9l-3.03-5.23ZM74.82,12.95h2.95c1.44,0,2.51-.9,2.51-2.39s-1.08-2.39-2.51-2.39h-2.95v4.77Z"/>
        </g>
        <g>
          <path class="cls-63" d="M41.04,26.45c0,.73-.57,1.15-1.23,1.15h-.64v1.07h-.58v-3.36h1.22c.65,0,1.23.41,1.23,1.15ZM40.46,26.45c0-.39-.27-.6-.64-.6h-.64v1.19h.64c.37,0,.64-.2.64-.6Z"/>
          <path class="cls-63" d="M42.34,28.66h-.58v-3.55h.58v3.55Z"/>
          <path class="cls-63" d="M44.4,26.22c.41,0,.73.22.86.49l.03-.45h.55v2.4h-.55l-.03-.45c-.12.27-.45.49-.86.49-.69,0-1.19-.56-1.19-1.25s.5-1.25,1.19-1.25ZM44.5,28.16c.41,0,.7-.32.7-.7s-.29-.7-.7-.7-.71.32-.71.7.29.7.71.7Z"/>
          <path class="cls-63" d="M49.18,27.25v1.42h-.58v-1.15c0-.56-.2-.75-.53-.75-.41,0-.65.31-.66.7v1.2h-.58v-2.4h.55l.03.36c.23-.23.54-.4.9-.4.58,0,.88.37.88,1.03Z"/>
          <path class="cls-63" d="M50.01,27.47c0-.69.54-1.25,1.29-1.25s1.28.56,1.28,1.25-.53,1.25-1.28,1.25-1.29-.56-1.29-1.25ZM51.99,27.47c0-.38-.29-.7-.7-.7s-.71.32-.71.7.29.7.71.7.7-.32.7-.7Z"/>
          <path class="cls-63" d="M56.6,26.22c.41,0,.73.22.86.49v-1.6h.59v3.55h-.55l-.03-.45c-.12.27-.45.49-.86.49-.69,0-1.19-.56-1.19-1.25s.5-1.25,1.19-1.25ZM56.7,28.16c.41,0,.7-.32.7-.7s-.29-.7-.7-.7-.71.32-.71.7.29.7.71.7Z"/>
          <path class="cls-63" d="M61.37,27.65h-1.82c.01.29.24.55.66.55.3,0,.5-.16.59-.33l.51.06c-.07.33-.45.79-1.11.79-.74,0-1.24-.56-1.24-1.26s.47-1.23,1.2-1.23,1.2.59,1.2,1.27v.15ZM59.56,27.24h1.23c-.02-.27-.25-.51-.62-.51s-.6.23-.62.51Z"/>
          <path class="cls-63" d="M65.3,27.61h-.59v1.06h-.58v-3.36h1.27c.61,0,1.18.44,1.18,1.16,0,.51-.29.88-.68,1.05l.71,1.16h-.66l-.64-1.06ZM64.71,27.06h.68c.33,0,.6-.23.6-.6s-.27-.61-.6-.61h-.68v1.21Z"/>
          <path class="cls-63" d="M69.67,27.65h-1.82c.01.29.24.55.66.55.3,0,.5-.16.59-.33l.51.06c-.07.33-.45.79-1.11.79-.74,0-1.24-.56-1.24-1.26s.47-1.23,1.2-1.23,1.2.59,1.2,1.27v.15ZM67.86,27.24h1.23c-.02-.27-.25-.51-.62-.51s-.6.23-.62.51Z"/>
          <path class="cls-63" d="M71.8,26.77c-.36,0-.71.28-.71.7s.36.7.71.7c.22,0,.42-.08.61-.26v.56c-.16.14-.4.25-.71.25-.71,0-1.23-.57-1.23-1.25s.52-1.25,1.23-1.25c.31,0,.55.1.71.25v.55c-.19-.18-.39-.25-.61-.25Z"/>
          <path class="cls-63" d="M75.66,26.27v2.4h-.55l-.03-.36c-.23.23-.53.4-.9.4-.58,0-.88-.37-.88-1.03v-1.42h.58v1.15c0,.56.2.75.53.75.42,0,.66-.33.66-.73v-1.17h.58Z"/>
          <path class="cls-63" d="M76.63,26.27h.55l.03.45c.13-.27.45-.49.86-.49.69,0,1.19.56,1.19,1.25s-.51,1.25-1.19,1.25c-.41,0-.73-.22-.86-.49v1.54h-.58v-3.49ZM77.98,28.16c.41,0,.7-.32.7-.7s-.29-.7-.7-.7-.7.32-.7.7.28.7.7.7Z"/>
          <path class="cls-63" d="M82.41,27.65h-1.82c.01.29.24.55.66.55.3,0,.5-.16.59-.33l.51.06c-.07.33-.45.79-1.11.79-.74,0-1.24-.56-1.24-1.26s.47-1.23,1.2-1.23,1.2.59,1.2,1.27v.15ZM80.6,27.24h1.23c-.02-.27-.25-.51-.62-.51s-.6.23-.62.51Z"/>
          <path class="cls-63" d="M84.66,26.32l-.09.51s-.14-.06-.24-.06c-.31,0-.48.32-.48.83v1.07h-.58v-2.4h.55l.02.26c.15-.18.33-.31.53-.31.14,0,.24.05.29.1Z"/>
          <path class="cls-63" d="M86.43,26.22c.41,0,.73.22.86.49l.03-.45h.55v2.4h-.55l-.03-.45c-.12.27-.45.49-.86.49-.69,0-1.19-.56-1.19-1.25s.5-1.25,1.19-1.25ZM86.53,28.16c.41,0,.7-.32.7-.7s-.29-.7-.7-.7-.71.32-.71.7.29.7.71.7Z"/>
          <path class="cls-63" d="M89.3,27.47c0,.42.36.7.71.7.22,0,.42-.08.61-.26v.56c-.14.12-.33.21-.57.24l-.11.19c.29,0,.48.1.48.34,0,.46-.78.43-1.02.43l.1-.27c.32,0,.59,0,.59-.16,0-.11-.13-.14-.28-.14h-.33s.18-.42.18-.42c-.57-.12-.98-.63-.98-1.22,0-.67.52-1.25,1.23-1.25.31,0,.55.1.71.25v.55c-.19-.18-.39-.25-.61-.25-.36,0-.71.28-.71.7Z"/>
          <path class="cls-63" d="M92.61,26.22c.41,0,.73.22.86.49l.03-.45h.55v2.4h-.55l-.03-.45c-.12.27-.45.49-.86.49-.69,0-1.19-.56-1.19-1.25s.5-1.25,1.19-1.25ZM92.27,25.02c.36,0,.51.32.79.32.16,0,.26-.08.26-.25l.48.09c-.03.33-.2.62-.61.62-.36,0-.51-.32-.79-.32-.16,0-.25.1-.25.25l-.49-.1c.03-.33.2-.62.61-.62ZM92.71,28.16c.41,0,.7-.32.7-.7s-.29-.7-.7-.7-.71.32-.71.7.29.7.71.7Z"/>
          <path class="cls-63" d="M94.87,27.47c0-.69.54-1.25,1.29-1.25s1.28.56,1.28,1.25-.53,1.25-1.28,1.25-1.29-.56-1.29-1.25ZM96.85,27.47c0-.38-.29-.7-.7-.7s-.71.32-.71.7.29.7.71.7.7-.32.7-.7Z"/>
          <path class="cls-63" d="M41.07,33.2h-1.82c.01.29.24.55.66.55.3,0,.5-.16.59-.33l.51.06c-.07.33-.45.79-1.11.79-.74,0-1.24-.56-1.24-1.26s.47-1.23,1.2-1.23,1.2.59,1.2,1.27v.15ZM39.26,32.79h1.23c-.02-.27-.25-.51-.62-.51s-.6.23-.62.51Z"/>
          <path class="cls-63" d="M45.01,33.16h-.59v1.06h-.58v-3.36h1.27c.61,0,1.18.44,1.18,1.16,0,.51-.29.88-.68,1.05l.71,1.16h-.66l-.64-1.06ZM44.41,32.61h.68c.33,0,.6-.23.6-.6s-.27-.61-.6-.61h-.68v1.21Z"/>
          <path class="cls-63" d="M49.38,33.2h-1.82c.01.29.24.55.66.55.3,0,.5-.16.59-.33l.51.06c-.07.33-.45.79-1.11.79-.74,0-1.24-.56-1.24-1.26s.47-1.23,1.2-1.23,1.2.59,1.2,1.27v.15ZM47.56,32.79h1.23c-.02-.27-.25-.51-.62-.51s-.6.23-.62.51Z"/>
          <path class="cls-63" d="M50.69,33.49c.03.17.22.28.5.28.2,0,.38-.07.38-.22,0-.19-.19-.23-.67-.38-.41-.12-.72-.32-.72-.71,0-.43.43-.69.89-.69.59,0,.95.33.96.73h-.58c-.01-.18-.2-.25-.36-.25-.15,0-.32.07-.32.21,0,.15.17.18.68.36.53.18.72.44.72.75,0,.45-.44.69-.98.69-.61,0-1.04-.26-1.07-.77h.58Z"/>
          <path class="cls-63" d="M52.99,31.18c0-.17.13-.3.3-.3s.3.13.3.3-.13.3-.3.3-.3-.13-.3-.3ZM53.58,34.21h-.58v-2.4h.58v2.4Z"/>
          <path class="cls-63" d="M55.17,34.21h-.58v-3.55h.58v3.55Z"/>
          <path class="cls-63" d="M56.11,31.18c0-.17.13-.3.3-.3s.3.13.3.3-.13.3-.3.3-.3-.13-.3-.3ZM56.7,34.21h-.58v-2.4h.58v2.4Z"/>
          <path class="cls-63" d="M60,33.2h-1.82c.01.29.24.55.66.55.3,0,.5-.16.59-.33l.51.06c-.07.33-.45.79-1.11.79-.74,0-1.24-.56-1.24-1.26s.47-1.23,1.2-1.23,1.2.59,1.2,1.27v.15ZM58.54,31.33h-.52l.57-.75h.44l.56.75h-.52l-.27-.43-.27.43ZM58.18,32.79h1.23c-.02-.27-.25-.51-.62-.51s-.6.23-.62.51Z"/>
          <path class="cls-63" d="M63.21,32.8v1.42h-.58v-1.15c0-.56-.2-.75-.53-.75-.41,0-.65.31-.66.7v1.2h-.58v-2.4h.55l.03.36c.23-.23.54-.4.9-.4.58,0,.88.37.88,1.03Z"/>
          <path class="cls-63" d="M65.37,32.32c-.36,0-.71.28-.71.7s.36.7.71.7c.22,0,.42-.08.61-.26v.56c-.16.14-.4.25-.71.25-.71,0-1.23-.57-1.23-1.25s.52-1.25,1.23-1.25c.31,0,.55.1.71.25v.55c-.19-.18-.39-.25-.61-.25Z"/>
          <path class="cls-63" d="M66.84,31.18c0-.17.13-.3.3-.3s.3.13.3.3-.13.3-.3.3-.3-.13-.3-.3ZM67.43,34.21h-.58v-2.4h.58v2.4Z"/>
          <path class="cls-63" d="M69.52,31.77c.41,0,.73.22.86.49l.03-.45h.55v2.4h-.55l-.03-.45c-.12.27-.45.49-.86.49-.69,0-1.19-.56-1.19-1.25s.5-1.25,1.19-1.25ZM69.62,33.71c.41,0,.7-.32.7-.7s-.29-.7-.7-.7-.71.32-.71.7.29.7.71.7Z"/>
        </g>
        <g>
          <rect class="cls-27" x="240.71" width="45.99" height="31.23"/>
          <rect class="cls-146" x="241.59" y=".86" width="44.23" height="29.48"/>
          <polyline class="cls-148" points="262.76 7.28 263.69 6.6 264.63 7.28 264.27 6.18 265.22 5.5 264.05 5.5 263.69 4.38 263.34 5.5 262.17 5.5 263.12 6.18 262.76 7.28"/>
          <polyline class="cls-148" points="257.93 8.58 258.86 7.9 259.8 8.58 259.44 7.48 260.39 6.8 259.22 6.8 258.86 5.68 258.51 6.8 257.34 6.8 258.29 7.48 257.93 8.58"/>
          <polyline class="cls-148" points="255.33 9.22 254.97 10.34 253.81 10.34 254.75 11.02 254.4 12.12 255.33 11.44 256.26 12.12 255.91 11.02 256.86 10.34 255.69 10.34 255.33 9.22"/>
          <polyline class="cls-148" points="254.03 16.26 254.97 16.94 254.61 15.84 255.56 15.16 254.39 15.16 254.03 14.04 253.68 15.16 252.51 15.16 253.46 15.84 253.1 16.94 254.03 16.26"/>
          <polyline class="cls-148" points="255.69 20 255.33 18.88 254.97 20 253.81 20 254.75 20.68 254.4 21.78 255.33 21.1 256.26 21.78 255.91 20.68 256.86 20 255.69 20"/>
          <polyline class="cls-148" points="259.23 23.54 258.87 22.42 258.51 23.54 257.35 23.54 258.29 24.22 257.94 25.32 258.87 24.64 259.8 25.32 259.45 24.22 260.4 23.54 259.23 23.54"/>
          <polyline class="cls-148" points="264.05 24.82 263.69 23.71 263.34 24.82 262.17 24.82 263.12 25.5 262.76 26.6 263.69 25.92 264.63 26.6 264.27 25.5 265.22 24.82 264.05 24.82"/>
          <polyline class="cls-148" points="268.88 23.54 268.52 22.42 268.16 23.54 266.99 23.54 267.94 24.22 267.59 25.32 268.52 24.64 269.45 25.32 269.1 24.22 270.04 23.54 268.88 23.54"/>
          <polyline class="cls-148" points="272.42 20 272.06 18.88 271.7 20 270.53 20 271.48 20.68 271.13 21.78 272.06 21.1 272.99 21.78 272.64 20.68 273.58 20 272.42 20"/>
          <polyline class="cls-148" points="274.87 15.15 273.7 15.15 273.34 14.03 272.98 15.15 271.81 15.15 272.76 15.83 272.41 16.93 273.34 16.25 274.27 16.93 273.92 15.83 274.87 15.15"/>
          <polyline class="cls-148" points="271.13 12.11 272.06 11.42 272.99 12.11 272.64 11 273.58 10.32 272.42 10.32 272.06 9.21 271.7 10.33 270.53 10.32 271.48 11 271.13 12.11"/>
          <polyline class="cls-148" points="268.53 5.68 268.17 6.8 267.01 6.8 267.95 7.48 267.6 8.58 268.53 7.9 269.46 8.58 269.11 7.48 270.06 6.8 268.89 6.8 268.53 5.68"/>
          <g>
            <path class="cls-146" d="M291.29,7.44V.85h4.52v1.11h-3.19v1.56h2.75v1.11h-2.75v2.8h-1.33Z"/>
            <path class="cls-146" d="M296.89,2.02V.85h1.26v1.17h-1.26ZM296.89,7.44V2.67h1.26v4.77h-1.26Z"/>
            <path class="cls-146" d="M303.79,7.44h-1.26v-2.43c0-.52-.03-.85-.08-1-.05-.15-.14-.27-.26-.35-.12-.08-.27-.13-.44-.13-.22,0-.41.06-.59.18-.17.12-.29.28-.36.48s-.1.56-.1,1.1v2.16h-1.26V2.67h1.17v.7c.42-.54.94-.81,1.57-.81.28,0,.53.05.76.15.23.1.41.23.52.38.12.16.2.33.25.53s.07.48.07.85v2.97Z"/>
            <path class="cls-146" d="M306.01,4.13l-1.15-.21c.13-.46.35-.8.66-1.02.31-.22.78-.33,1.4-.33.56,0,.98.07,1.26.2.28.13.47.3.58.51.11.21.17.58.17,1.13v1.47c-.01.42,0,.73.05.93.04.2.12.41.23.64h-1.25c-.03-.08-.07-.21-.12-.37-.02-.07-.04-.12-.05-.15-.22.21-.45.37-.69.47-.25.1-.51.16-.79.16-.49,0-.88-.13-1.16-.4-.28-.27-.42-.6-.42-1.01,0-.27.06-.51.19-.72.13-.21.31-.37.54-.49.23-.11.57-.21,1-.29.59-.11,1-.21,1.23-.31v-.13c0-.24-.06-.42-.18-.52-.12-.1-.35-.15-.68-.15-.22,0-.4.04-.53.13s-.23.24-.31.46ZM307.7,5.15c-.16.05-.42.12-.77.19-.35.07-.58.15-.69.22-.16.12-.25.27-.25.44s.07.33.2.46c.13.13.3.19.5.19.23,0,.44-.07.65-.22.15-.11.25-.25.3-.42.03-.11.05-.31.05-.62v-.25Z"/>
            <path class="cls-146" d="M314.53,7.44h-1.26v-2.43c0-.52-.03-.85-.08-1-.05-.15-.14-.27-.26-.35-.12-.08-.27-.13-.44-.13-.22,0-.41.06-.59.18-.17.12-.29.28-.36.48s-.1.56-.1,1.1v2.16h-1.26V2.67h1.17v.7c.42-.54.94-.81,1.57-.81.28,0,.53.05.76.15.23.1.41.23.52.38.12.16.2.33.25.53s.07.48.07.85v2.97Z"/>
            <path class="cls-146" d="M319.97,4.08l-1.24.22c-.04-.25-.14-.44-.29-.56-.15-.13-.34-.19-.58-.19-.31,0-.57.11-.75.33-.19.22-.28.58-.28,1.09,0,.57.1.97.29,1.2s.45.35.77.35c.24,0,.44-.07.59-.2.15-.14.26-.37.32-.7l1.24.21c-.13.57-.38,1-.74,1.29-.37.29-.86.44-1.47.44-.7,0-1.25-.22-1.67-.66s-.62-1.05-.62-1.83.21-1.4.62-1.84c.42-.44.98-.66,1.69-.66.58,0,1.04.13,1.39.38.34.25.59.63.74,1.14Z"/>
            <path class="cls-146" d="M320.92,2.02V.85h1.26v1.17h-1.26ZM320.92,7.44V2.67h1.26v4.77h-1.26Z"/>
            <path class="cls-146" d="M324.42,4.13l-1.15-.21c.13-.46.35-.8.66-1.02.31-.22.78-.33,1.4-.33.56,0,.98.07,1.26.2.28.13.47.3.58.51.11.21.17.58.17,1.13v1.47c-.01.42,0,.73.05.93.04.2.12.41.23.64h-1.25c-.03-.08-.07-.21-.12-.37-.02-.07-.04-.12-.05-.15-.22.21-.45.37-.69.47-.25.1-.51.16-.79.16-.49,0-.88-.13-1.16-.4-.28-.27-.42-.6-.42-1.01,0-.27.06-.51.19-.72.13-.21.31-.37.54-.49.23-.11.57-.21,1-.29.59-.11,1-.21,1.23-.31v-.13c0-.24-.06-.42-.18-.52-.12-.1-.35-.15-.68-.15-.22,0-.4.04-.53.13s-.23.24-.31.46ZM326.11,5.15c-.16.05-.42.12-.77.19-.35.07-.58.15-.69.22-.16.12-.25.27-.25.44s.07.33.2.46c.13.13.3.19.5.19.23,0,.44-.07.65-.22.15-.11.25-.25.3-.42.03-.11.05-.31.05-.62v-.25Z"/>
            <path class="cls-146" d="M332.97,7.44h-1.17v-.7c-.19.27-.42.48-.69.61-.27.13-.53.2-.8.2-.55,0-1.02-.22-1.41-.66-.39-.44-.59-1.06-.59-1.85s.19-1.42.57-1.84c.38-.42.86-.63,1.44-.63.53,0,.99.22,1.38.66V.85h1.26v6.59ZM329.6,4.95c0,.51.07.88.21,1.11.2.33.49.49.85.49.29,0,.54-.12.74-.37.2-.25.31-.62.31-1.11,0-.55-.1-.94-.3-1.18-.2-.24-.45-.36-.76-.36s-.55.12-.75.36c-.2.24-.3.59-.3,1.07Z"/>
            <path class="cls-146" d="M333.92,4.99c0-.42.1-.83.31-1.22.21-.39.5-.69.88-.9.38-.21.8-.31,1.27-.31.72,0,1.31.23,1.77.7.46.47.69,1.06.69,1.78s-.23,1.32-.7,1.79c-.47.47-1.05.71-1.76.71-.44,0-.85-.1-1.25-.3-.4-.2-.7-.49-.91-.87-.21-.38-.31-.85-.31-1.39ZM335.22,5.06c0,.47.11.84.34,1.09.22.25.5.38.83.38s.61-.13.83-.38c.22-.25.33-.62.33-1.1s-.11-.83-.33-1.08c-.22-.25-.5-.38-.83-.38s-.61.13-.83.38c-.22.25-.34.61-.34,1.09Z"/>
            <path class="cls-146" d="M342.36,2.67h1.18v.7c.15-.24.36-.43.62-.58.26-.15.55-.22.87-.22.55,0,1.02.22,1.41.65.39.43.58,1.04.58,1.81s-.19,1.42-.58,1.86c-.39.44-.86.66-1.42.66-.26,0-.5-.05-.72-.16-.21-.1-.44-.28-.68-.54v2.4h-1.26V2.67ZM343.61,4.97c0,.54.11.93.32,1.19.21.26.47.38.78.38s.54-.12.73-.35c.19-.24.29-.62.29-1.16,0-.5-.1-.87-.3-1.11-.2-.24-.45-.36-.75-.36s-.56.12-.77.36c-.2.24-.31.59-.31,1.06Z"/>
            <path class="cls-146" d="M350.78,5.92l1.26.21c-.16.46-.42.81-.77,1.05-.35.24-.79.36-1.31.36-.83,0-1.44-.27-1.84-.81-.31-.43-.47-.98-.47-1.64,0-.79.21-1.41.62-1.86.41-.45.94-.67,1.57-.67.71,0,1.27.23,1.68.7.41.47.61,1.19.59,2.15h-3.16c0,.37.11.67.31.87.19.21.44.31.73.31.2,0,.36-.05.5-.16s.24-.28.31-.52ZM350.85,4.65c0-.37-.1-.64-.28-.83s-.4-.29-.66-.29c-.28,0-.5.1-.68.3-.18.2-.27.47-.27.82h1.89Z"/>
            <path class="cls-146" d="M353.13,7.44V.85h1.26v6.59h-1.26Z"/>
            <path class="cls-146" d="M356.63,4.13l-1.15-.21c.13-.46.35-.8.66-1.02.31-.22.78-.33,1.4-.33.56,0,.98.07,1.26.2.28.13.47.3.58.51.11.21.17.58.17,1.13v1.47c-.01.42,0,.73.05.93.04.2.12.41.23.64h-1.25c-.03-.08-.07-.21-.12-.37-.02-.07-.04-.12-.05-.15-.22.21-.45.37-.69.47-.25.1-.51.16-.79.16-.49,0-.88-.13-1.16-.4-.28-.27-.42-.6-.42-1.01,0-.27.06-.51.19-.72.13-.21.31-.37.54-.49.23-.11.57-.21,1-.29.59-.11,1-.21,1.23-.31v-.13c0-.24-.06-.42-.18-.52-.12-.1-.35-.15-.68-.15-.22,0-.4.04-.53.13s-.23.24-.31.46ZM358.32,5.15c-.16.05-.42.12-.77.19-.35.07-.58.15-.69.22-.16.12-.25.27-.25.44s.07.33.2.46c.13.13.3.19.5.19.23,0,.44-.07.65-.22.15-.11.25-.25.3-.42.03-.11.05-.31.05-.62v-.25Z"/>
            <path class="cls-146" d="M291.27,11.9h1.33v3.57c0,.57.02.93.05,1.1.06.27.19.49.41.65.21.16.51.24.88.24s.66-.08.85-.23c.19-.15.31-.34.35-.57.04-.22.06-.6.06-1.12v-3.64h1.33v3.46c0,.79-.04,1.35-.11,1.68-.07.33-.2.6-.4.83-.19.22-.45.4-.77.54-.32.13-.75.2-1.27.2-.63,0-1.11-.07-1.43-.22-.32-.15-.58-.33-.77-.57-.19-.23-.31-.48-.37-.73-.09-.38-.13-.93-.13-1.67v-3.51Z"/>
            <path class="cls-146" d="M302.26,18.48h-1.26v-2.43c0-.52-.03-.85-.08-1-.05-.15-.14-.27-.26-.35-.12-.08-.27-.13-.44-.13-.22,0-.41.06-.59.18-.17.12-.29.28-.36.48s-.1.56-.1,1.1v2.16h-1.26v-4.77h1.17v.7c.42-.54.94-.81,1.57-.81.28,0,.53.05.76.15.23.1.41.23.52.38.12.16.2.33.25.53s.07.48.07.85v2.97Z"/>
            <path class="cls-146" d="M303.54,13.06v-1.17h1.26v1.17h-1.26ZM303.54,18.48v-4.77h1.26v4.77h-1.26Z"/>
            <path class="cls-146" d="M307.04,15.17l-1.15-.21c.13-.46.35-.8.66-1.02.31-.22.78-.33,1.4-.33.56,0,.98.07,1.26.2.28.13.47.3.58.51.11.21.17.58.17,1.13v1.47c-.01.42,0,.73.05.93.04.2.12.41.23.64h-1.25c-.03-.08-.07-.21-.12-.37-.02-.07-.04-.12-.05-.15-.22.21-.45.37-.69.47-.25.1-.51.16-.79.16-.49,0-.88-.13-1.16-.4-.28-.27-.42-.6-.42-1.01,0-.27.06-.51.19-.72.13-.21.31-.37.54-.49.23-.11.57-.21,1-.29.59-.11,1-.21,1.23-.31v-.13c0-.24-.06-.42-.18-.52-.12-.1-.35-.15-.68-.15-.22,0-.4.04-.53.13s-.23.24-.31.46ZM307.03,13.07h-.58c0-.07,0-.12,0-.16,0-.31.08-.56.23-.73.15-.17.35-.25.59-.25.1,0,.2.01.29.03.09.02.25.09.49.19.24.11.42.16.56.16.1,0,.18-.03.24-.09.06-.06.11-.16.12-.3h.58c0,.4-.08.69-.23.87-.15.17-.34.26-.57.26-.1,0-.2-.01-.3-.03-.07-.02-.24-.08-.52-.18-.28-.1-.48-.16-.6-.16-.1,0-.17.03-.22.09-.05.06-.08.16-.09.3ZM308.73,16.19c-.16.05-.42.12-.77.19-.35.07-.58.15-.69.22-.16.12-.25.26-.25.44s.07.33.2.46c.13.13.3.19.5.19.23,0,.44-.07.65-.22.15-.11.25-.25.3-.42.03-.11.05-.31.05-.62v-.25Z"/>
            <path class="cls-146" d="M310.92,16.03c0-.42.1-.83.31-1.22.21-.39.5-.69.88-.9.38-.21.8-.31,1.27-.31.72,0,1.31.23,1.77.7.46.47.69,1.06.69,1.78s-.23,1.32-.7,1.79c-.47.47-1.05.71-1.76.71-.44,0-.85-.1-1.25-.3-.4-.2-.7-.49-.91-.87-.21-.38-.31-.85-.31-1.39ZM312.21,16.1c0,.47.11.84.34,1.09.22.25.5.38.83.38s.61-.13.83-.38c.22-.25.33-.62.33-1.1s-.11-.83-.33-1.08c-.22-.25-.5-.38-.83-.38s-.61.13-.83.38c-.22.25-.34.61-.34,1.09Z"/>
            <path class="cls-146" d="M319.4,18.48v-6.59h4.88v1.11h-3.55v1.46h3.31v1.11h-3.31v1.79h3.68v1.11h-5.01Z"/>
            <path class="cls-146" d="M328.66,18.48v-.71c-.17.25-.4.46-.69.6-.28.15-.58.22-.9.22s-.61-.07-.86-.21c-.25-.14-.44-.34-.55-.59-.11-.25-.17-.61-.17-1.06v-3.02h1.26v2.19c0,.67.02,1.08.07,1.23s.13.27.25.36c.12.09.28.13.47.13.22,0,.41-.06.58-.18.17-.12.29-.27.35-.44.06-.18.09-.6.09-1.29v-2.01h1.26v4.77h-1.17Z"/>
            <path class="cls-146" d="M332.35,18.48h-1.26v-4.77h1.17v.68c.2-.32.38-.53.54-.63.16-.1.34-.15.55-.15.29,0,.56.08.83.24l-.39,1.1c-.21-.14-.41-.21-.59-.21s-.33.05-.45.15c-.12.1-.22.27-.29.53-.07.25-.11.79-.11,1.6v1.47Z"/>
            <path class="cls-146" d="M334.43,16.03c0-.42.1-.83.31-1.22.21-.39.5-.69.88-.9.38-.21.8-.31,1.27-.31.72,0,1.31.23,1.77.7.46.47.69,1.06.69,1.78s-.23,1.32-.7,1.79c-.47.47-1.05.71-1.76.71-.44,0-.85-.1-1.25-.3-.4-.2-.7-.49-.91-.87-.21-.38-.31-.85-.31-1.39ZM335.73,16.1c0,.47.11.84.34,1.09.22.25.5.38.83.38s.61-.13.83-.38c.22-.25.33-.62.33-1.1s-.11-.83-.33-1.08c-.22-.25-.5-.38-.83-.38s-.61.13-.83.38c-.22.25-.34.61-.34,1.09Z"/>
            <path class="cls-146" d="M340.31,13.71h1.18v.7c.15-.24.36-.43.62-.58.26-.15.55-.22.87-.22.55,0,1.02.22,1.41.65.39.43.58,1.04.58,1.81s-.19,1.42-.58,1.86c-.39.44-.86.66-1.42.66-.26,0-.5-.05-.72-.16-.21-.1-.44-.28-.68-.54v2.4h-1.26v-6.59ZM341.56,16.02c0,.54.11.93.32,1.19.21.26.47.38.78.38s.54-.12.73-.35c.19-.24.29-.62.29-1.16,0-.5-.1-.87-.3-1.11-.2-.24-.45-.36-.75-.36s-.56.12-.77.36c-.2.24-.31.59-.31,1.06Z"/>
            <path class="cls-146" d="M348.73,16.96l1.26.21c-.16.46-.42.81-.77,1.05s-.79.36-1.31.36c-.83,0-1.44-.27-1.84-.81-.31-.43-.47-.98-.47-1.64,0-.79.21-1.41.62-1.86.41-.45.94-.67,1.57-.67.71,0,1.27.23,1.68.7.41.47.61,1.19.59,2.15h-3.16c0,.37.11.67.31.87.19.21.44.31.73.31.2,0,.36-.05.5-.16s.24-.28.31-.52ZM348.8,15.69c0-.37-.1-.64-.28-.83s-.4-.29-.66-.29c-.28,0-.5.1-.68.3-.18.2-.27.47-.27.82h1.89Z"/>
            <path class="cls-146" d="M351.08,13.06v-1.17h1.26v1.17h-1.26ZM351.08,18.48v-4.77h1.26v4.77h-1.26Z"/>
            <path class="cls-146" d="M354.58,15.17l-1.15-.21c.13-.46.35-.8.66-1.02.31-.22.78-.33,1.4-.33.56,0,.98.07,1.26.2.28.13.47.3.58.51.11.21.17.58.17,1.13v1.47c-.01.42,0,.73.05.93.04.2.12.41.23.64h-1.25c-.03-.08-.07-.21-.12-.37-.02-.07-.04-.12-.05-.15-.22.21-.45.37-.69.47-.25.1-.51.16-.79.16-.49,0-.88-.13-1.16-.4-.28-.27-.42-.6-.42-1.01,0-.27.06-.51.19-.72.13-.21.31-.37.54-.49.23-.11.57-.21,1-.29.59-.11,1-.21,1.23-.31v-.13c0-.24-.06-.42-.18-.52-.12-.1-.35-.15-.68-.15-.22,0-.4.04-.53.13s-.23.24-.31.46ZM356.27,16.19c-.16.05-.42.12-.77.19-.35.07-.58.15-.69.22-.16.12-.25.26-.25.44s.07.33.2.46c.13.13.3.19.5.19.23,0,.44-.07.65-.22.15-.11.25-.25.3-.42.03-.11.05-.31.05-.62v-.25Z"/>
          </g>
          <text class="cls-155" transform="translate(290.68 30.33)"><tspan x="0" y="0">NextGenerationEU</tspan></text>
        </g>
        <g>
          <g class="cls-158">
            <rect class="cls-53" x="3.68" y="4.1" width="15.16" height="12.36" transform="translate(.98 21.54) rotate(-90)"/>
          </g>
          <g class="cls-81">
            <rect class="cls-43" x="20.75" y="17.08" width="15.16" height="16.58" transform="translate(56.66 50.75) rotate(180)"/>
          </g>
          <g class="cls-84">
            <rect class="cls-42" x="9.74" y="-.53" width="25.36" height="30.96"/>
          </g>
          <path class="cls-20" d="M28.79,30.21s-.08.09-.12.14l.02-.02s.07-.08.11-.12M29.66,29.09c-.22.31-.46.62-.7.92-.01,0-.03.02-.04.03,2.53-3.25,3.38-7.23,1.21-10.52-2.24-3.39-8.4-3.11-10.64-8.05-2.24-4.94-3.3-8.82-9.4-6.92h0c4.51-1.86,6.4.5,7.31,1.92.86,1.35,1.54,3.07,2.35,4.87.98,2.16,2.72,3.3,4.78,4.28,1.77.84,3.99,1.62,5.34,3.1.18.2.35.41.5.64,1,1.52,2.33,5.37-.71,9.73Z"/>
          <g class="cls-82">
            <g class="cls-83">
              <rect class="cls-13" x="0" y="19.05" width=".21" height="17.56"/>
              <rect class="cls-94" x=".21" y="19.05" width=".21" height="17.56"/>
              <rect class="cls-39" x=".43" y="19.05" width=".21" height="17.56"/>
              <rect class="cls-128" x=".64" y="19.05" width=".21" height="17.56"/>
              <rect class="cls-118" x=".86" y="19.05" width=".21" height="17.56"/>
              <rect class="cls-124" x="1.07" y="19.05" width=".21" height="17.56"/>
              <rect class="cls-55" x="1.28" y="19.05" width=".21" height="17.56"/>
              <rect class="cls-62" x="1.5" y="19.05" width=".21" height="17.56"/>
              <rect class="cls-29" x="1.71" y="19.05" width=".21" height="17.56"/>
              <rect class="cls-29" x="1.93" y="19.05" width=".21" height="17.56"/>
              <rect class="cls-54" x="2.14" y="19.05" width=".21" height="17.56"/>
              <rect class="cls-106" x="2.35" y="19.05" width=".21" height="17.56"/>
              <rect class="cls-106" x="2.57" y="19.05" width=".21" height="17.56"/>
              <rect class="cls-149" x="2.78" y="19.05" width=".21" height="17.56"/>
              <rect class="cls-68" x="2.99" y="19.05" width=".21" height="17.56"/>
              <rect class="cls-49" x="3.21" y="19.05" width=".21" height="17.56"/>
              <rect class="cls-99" x="3.42" y="19.05" width=".21" height="17.56"/>
              <rect class="cls-92" x="3.64" y="19.05" width=".21" height="17.56"/>
              <rect class="cls-9" x="3.85" y="19.05" width=".21" height="17.56"/>
              <rect class="cls-135" x="4.06" y="19.05" width=".21" height="17.56"/>
              <rect class="cls-111" x="4.28" y="19.05" width=".21" height="17.56"/>
              <rect class="cls-134" x="4.49" y="19.05" width=".21" height="17.56"/>
              <rect class="cls-72" x="4.71" y="19.05" width=".21" height="17.56"/>
              <rect class="cls-110" x="4.92" y="19.05" width=".21" height="17.56"/>
              <rect class="cls-160" x="5.13" y="19.05" width=".21" height="17.56"/>
              <rect class="cls-159" x="5.35" y="19.05" width=".21" height="17.56"/>
              <rect class="cls-115" x="5.56" y="19.05" width=".21" height="17.56"/>
              <rect class="cls-73" x="5.78" y="19.05" width=".21" height="17.56"/>
              <rect class="cls-117" x="5.99" y="19.05" width=".21" height="17.56"/>
              <rect class="cls-97" x="6.2" y="19.05" width=".21" height="17.56"/>
              <rect class="cls-77" x="6.42" y="19.05" width=".21" height="17.56"/>
              <rect class="cls-126" x="6.63" y="19.05" width=".21" height="17.56"/>
              <rect class="cls-4" x="6.85" y="19.05" width=".21" height="17.56"/>
              <rect class="cls-136" x="7.06" y="19.05" width=".21" height="17.56"/>
              <rect class="cls-47" x="7.27" y="19.05" width=".21" height="17.56"/>
              <rect class="cls-100" x="7.49" y="19.05" width=".21" height="17.56"/>
              <rect class="cls-153" x="7.7" y="19.05" width=".21" height="17.56"/>
              <rect class="cls-52" x="7.92" y="19.05" width=".21" height="17.56"/>
              <rect class="cls-95" x="8.13" y="19.05" width=".21" height="17.56"/>
              <rect class="cls-116" x="8.34" y="19.05" width=".21" height="17.56"/>
              <rect class="cls-78" x="8.56" y="19.05" width=".21" height="17.56"/>
              <rect class="cls-12" x="8.77" y="19.05" width=".21" height="17.56"/>
              <rect class="cls-18" x="8.98" y="19.05" width=".21" height="17.56"/>
              <rect class="cls-144" x="9.2" y="19.05" width=".21" height="17.56"/>
              <rect class="cls-144" x="9.41" y="19.05" width=".21" height="17.56"/>
              <rect class="cls-16" x="9.63" y="19.05" width=".21" height="17.56"/>
              <rect class="cls-88" x="9.84" y="19.05" width=".21" height="17.56"/>
              <rect class="cls-156" x="10.05" y="19.05" width=".21" height="17.56"/>
              <rect class="cls-156" x="10.27" y="19.05" width=".21" height="17.56"/>
              <rect class="cls-121" x="10.48" y="19.05" width=".21" height="17.56"/>
              <rect class="cls-66" x="10.7" y="19.05" width=".21" height="17.56"/>
              <rect class="cls-98" x="10.91" y="19.05" width=".21" height="17.56"/>
              <rect class="cls-103" x="11.12" y="19.05" width=".21" height="17.56"/>
              <rect class="cls-64" x="11.34" y="19.05" width=".21" height="17.56"/>
              <rect class="cls-35" x="11.55" y="19.05" width=".21" height="17.56"/>
              <rect class="cls-104" x="11.77" y="19.05" width=".21" height="17.56"/>
              <rect class="cls-113" x="11.98" y="19.05" width=".21" height="17.56"/>
              <rect class="cls-48" x="12.19" y="19.05" width=".21" height="17.56"/>
              <rect class="cls-8" x="12.41" y="19.05" width=".21" height="17.56"/>
              <rect class="cls-71" x="12.62" y="19.05" width=".21" height="17.56"/>
              <rect class="cls-70" x="12.84" y="19.05" width=".21" height="17.56"/>
              <rect class="cls-114" x="13.05" y="19.05" width=".21" height="17.56"/>
              <rect class="cls-114" x="13.26" y="19.05" width=".21" height="17.56"/>
              <rect class="cls-152" x="13.48" y="19.05" width=".21" height="17.56"/>
              <rect class="cls-30" x="13.69" y="19.05" width=".21" height="17.56"/>
              <rect class="cls-102" x="13.9" y="19.05" width=".21" height="17.56"/>
              <rect class="cls-75" x="14.12" y="19.05" width=".21" height="17.56"/>
              <rect class="cls-132" x="14.33" y="19.05" width=".21" height="17.56"/>
              <rect class="cls-141" x="14.55" y="19.05" width=".21" height="17.56"/>
              <rect class="cls-91" x="14.76" y="19.05" width=".21" height="17.56"/>
              <rect class="cls-15" x="14.97" y="19.05" width=".21" height="17.56"/>
              <rect class="cls-33" x="15.19" y="19.05" width=".21" height="17.56"/>
              <rect class="cls-157" x="15.4" y="19.05" width=".21" height="17.56"/>
              <rect class="cls-112" x="15.62" y="19.05" width=".21" height="17.56"/>
              <rect class="cls-5" x="15.83" y="19.05" width=".21" height="17.56"/>
              <rect class="cls-138" x="16.04" y="19.05" width=".21" height="17.56"/>
              <rect class="cls-37" x="16.26" y="19.05" width=".21" height="17.56"/>
              <rect class="cls-57" x="16.47" y="19.05" width=".21" height="17.56"/>
              <rect class="cls-93" x="16.69" y="19.05" width=".21" height="17.56"/>
              <rect class="cls-80" x="16.9" y="19.05" width=".21" height="17.56"/>
              <rect class="cls-161" x="17.11" y="19.05" width=".21" height="17.56"/>
              <rect class="cls-44" x="17.33" y="19.05" width=".21" height="17.56"/>
              <rect class="cls-87" x="17.54" y="19.05" width=".21" height="17.56"/>
              <rect class="cls-108" x="17.76" y="19.05" width=".21" height="17.56"/>
              <rect class="cls-101" x="17.97" y="19.05" width=".21" height="17.56"/>
              <rect class="cls-140" x="18.18" y="19.05" width=".21" height="17.56"/>
              <rect class="cls-127" x="18.4" y="19.05" width=".21" height="17.56"/>
              <rect class="cls-58" x="18.61" y="19.05" width=".21" height="17.56"/>
              <rect class="cls-32" x="18.83" y="19.05" width=".21" height="17.56"/>
              <rect class="cls-76" x="19.04" y="19.05" width=".21" height="17.56"/>
              <rect class="cls-14" x="19.25" y="19.05" width=".21" height="17.56"/>
              <rect class="cls-123" x="19.47" y="19.05" width=".21" height="17.56"/>
              <rect class="cls-142" x="19.68" y="19.05" width=".21" height="17.56"/>
              <rect class="cls-11" x="19.89" y="19.05" width=".21" height="17.56"/>
              <rect class="cls-31" x="20.11" y="19.05" width=".21" height="17.56"/>
              <rect class="cls-31" x="20.32" y="19.05" width=".21" height="17.56"/>
              <rect class="cls-162" x="20.54" y="19.05" width=".21" height="17.56"/>
              <rect class="cls-147" x="20.75" y="19.05" width=".21" height="17.56"/>
              <rect class="cls-65" x="20.96" y="19.05" width=".21" height="17.56"/>
              <rect class="cls-36" x="21.18" y="19.05" width=".21" height="17.56"/>
              <rect class="cls-125" x="21.39" y="19.05" width=".21" height="17.56"/>
              <rect class="cls-86" x="21.61" y="19.05" width=".21" height="17.56"/>
              <rect class="cls-56" x="21.82" y="19.05" width=".21" height="17.56"/>
              <rect class="cls-120" x="22.03" y="19.05" width=".21" height="17.56"/>
              <rect class="cls-150" x="22.25" y="19.05" width=".21" height="17.56"/>
              <rect class="cls-145" x="22.46" y="19.05" width=".21" height="17.56"/>
              <rect class="cls-109" x="22.68" y="19.05" width=".21" height="17.56"/>
              <rect class="cls-131" x="22.89" y="19.05" width=".21" height="17.56"/>
              <rect class="cls-131" x="23.1" y="19.05" width=".21" height="17.56"/>
              <rect class="cls-10" x="23.32" y="19.05" width=".21" height="17.56"/>
              <rect class="cls-17" x="23.53" y="19.05" width=".21" height="17.56"/>
              <rect class="cls-61" x="23.75" y="19.05" width=".21" height="17.56"/>
              <rect class="cls-3" x="23.96" y="19.05" width=".21" height="17.56"/>
              <rect class="cls-7" x="24.17" y="19.05" width=".21" height="17.56"/>
              <rect class="cls-6" x="24.39" y="19.05" width=".21" height="17.56"/>
              <rect class="cls-79" x="24.6" y="19.05" width=".21" height="17.56"/>
              <rect class="cls-119" x="24.81" y="19.05" width=".21" height="17.56"/>
              <rect class="cls-122" x="25.03" y="19.05" width=".21" height="17.56"/>
              <rect class="cls-60" x="25.24" y="19.05" width=".21" height="17.56"/>
              <rect class="cls-151" x="25.46" y="19.05" width=".21" height="17.56"/>
              <rect class="cls-38" x="25.67" y="19.05" width=".21" height="17.56"/>
              <rect class="cls-46" x="25.88" y="19.05" width=".21" height="17.56"/>
              <rect class="cls-50" x="26.1" y="19.05" width=".21" height="17.56"/>
              <rect class="cls-133" x="26.31" y="19.05" width=".21" height="17.56"/>
              <rect class="cls-51" x="26.53" y="19.05" width=".21" height="17.56"/>
              <rect class="cls-143" x="26.74" y="19.05" width=".21" height="17.56"/>
              <rect class="cls-96" x="26.95" y="19.05" width=".21" height="17.56"/>
              <rect class="cls-105" x="27.17" y="19.05" width=".21" height="17.56"/>
              <rect class="cls-130" x="27.38" y="19.05" width=".21" height="17.56"/>
              <rect class="cls-28" x="27.6" y="19.05" width=".21" height="17.56"/>
              <rect class="cls-139" x="27.81" y="19.05" width=".21" height="17.56"/>
              <rect class="cls-45" x="28.02" y="19.05" width=".21" height="17.56"/>
              <rect class="cls-90" x="28.24" y="19.05" width=".21" height="17.56"/>
              <rect class="cls-67" x="28.45" y="19.05" width=".21" height="17.56"/>
            </g>
            <rect class="cls-41" x="-.54" y="20.5" width="28.19" height="17.22"/>
          </g>
          <g class="cls-85">
            <rect class="cls-40" y="4.79" width="14.6" height="31.21" transform="translate(14.6 40.79) rotate(180)"/>
          </g>
          <path class="cls-24" d="M16.33,35.98C7.31,35.98,0,28.67,0,19.64c0,4.67,4.09,3.27,8.43,2.03-.28,5.82-3.21,13.3,7.91,14.3"/>
          <path class="cls-21" d="M4.24,27.26h0s0,0,0,0h0Z"/>
          <path class="cls-26" d="M28.68,30.33s-.02.01-.04.02c-.4.34-2.17,1.68-3.76.86-1.57-.81-2.49-2.78-2.85-3.58-.25.14-.5.26-.75.38,0,0,0,0,0,0,1.72,2.96,3.48,5.25,6.41,3.15.31-.23.63-.5.97-.81h0s0-.01,0-.01h.01Z"/>
          <path class="cls-20" d="M7.97,5.61c.14-.08.28-.16.42-.24-5.69,4.19-.91,8.95-.07,13.85,1.01,5.91-4.76,15.61,8.02,16.76-5.89-.03-7.6-2.87-8.11-4.05-.89-2.05-.66-4.57-.43-6.74.11-1.04.25-2.08.32-3.12.06-.92.08-1.89-.08-2.8-.19-1.14-.6-2.25-1.02-3.32-.65-1.65-1.51-3.54-1.64-5.37-.14-2,.94-3.9,2.6-4.96"/>
          <path class="cls-20" d="M8.43,21.68c2.6-.74,5.28-1.42,7.24-.69,5.34,1.98,6.48,15.54,12.95,9.43-3.17,3.52-5.44.95-6.43-.44-.84-1.17-1.53-2.49-2.24-3.74-.98-1.73-2.43-4.25-4.38-4.98-1.91-.71-4.7.04-6.59.57-.19.05-.38.11-.57.16,0-.1.01-.2.02-.31"/>
          <path class="cls-23" d="M8.43,21.7c1.16-.33,2.35-.65,3.47-.84-1.35,5.2-5.1,13.21,4.43,15.14-11.12-1-8.18-8.48-7.91-14.3"/>
          <path class="cls-25" d="M8.43,21.68c.32-.09.65-.18.97-.27.11,1.3-.68,4.54-.69,7.36-.01,4.42,2.79,6.49,7.62,7.21-11.12-1-8.18-8.48-7.91-14.3"/>
        </g>
      </g>
    </g>
  </g>
</svg>