<?xml version="1.0" encoding="UTF-8"?>
<svg id="Layer_1" data-name="Layer 1" xmlns="http://www.w3.org/2000/svg" viewBox="0 0 196.35 36.25" width="151" height="28">
  <defs>
    <style>
      .cls-1 {
        fill: #f7fbff;
      }
    </style>
  </defs>
  <rect class="cls-1" x="65" y="3.77" width="2.05" height="9.38"/>
  <path class="cls-1" d="M68.96,5.96h2.02v1.03c.12-.15.24-.3.38-.44.14-.14.29-.26.46-.37.17-.11.35-.19.56-.26s.44-.09.69-.09c.77,0,1.37.24,1.79.71.42.47.63,1.13.63,1.96v4.65h-2.02v-4c0-.48-.11-.84-.32-1.09-.21-.25-.51-.37-.9-.37s-.7.12-.93.37c-.23.24-.34.61-.34,1.09v4h-2.02v-7.18Z"/>
  <path class="cls-1" d="M79.6,13.28c-.51,0-1.02-.09-1.55-.26-.53-.17-1.03-.45-1.51-.82l.87-1.34c.39.29.78.5,1.16.64.39.14.75.21,1.08.21.29,0,.51-.05.65-.15.14-.1.21-.23.21-.39v-.03c0-.11-.04-.2-.12-.28-.08-.08-.19-.15-.33-.21-.14-.06-.29-.11-.47-.17-.18-.05-.37-.11-.56-.17-.25-.07-.5-.16-.75-.26s-.48-.24-.69-.4c-.2-.17-.37-.37-.5-.61-.13-.24-.19-.54-.19-.88v-.03c0-.37.07-.69.21-.97.14-.28.32-.52.56-.72.23-.2.51-.34.83-.44.32-.1.65-.15,1.02-.15.45,0,.91.07,1.38.22.47.15.89.35,1.28.61l-.77,1.41c-.35-.21-.7-.37-1.04-.49s-.63-.18-.89-.18-.44.05-.56.14c-.12.09-.19.21-.19.36v.03c0,.1.04.19.12.26.08.08.19.15.32.21.13.07.29.13.46.19.17.06.36.13.55.19.25.08.5.18.76.29.26.11.49.25.69.41.2.16.37.36.51.59.13.23.2.51.2.84v.03c0,.4-.07.75-.21,1.04s-.33.53-.58.72c-.25.19-.54.33-.87.42-.33.09-.69.14-1.07.14"/>
  <path class="cls-1" d="M85.96,13.27c-.31,0-.59-.03-.85-.1-.25-.07-.47-.18-.65-.36-.18-.17-.32-.39-.43-.66-.1-.27-.15-.62-.15-1.04v-3.4h-.85v-1.74h.85v-1.84h2.02v1.84h1.68v1.74h-1.68v3.08c0,.47.22.7.65.7.35,0,.69-.09,1-.27v1.63c-.21.13-.45.23-.71.3-.26.08-.56.11-.89.11"/>
  <rect class="cls-1" x="88.99" y="5.96" width="2.02" height="7.18"/>
  <path class="cls-1" d="M95.09,13.27c-.31,0-.59-.03-.84-.1-.25-.07-.47-.18-.65-.36-.18-.17-.32-.39-.43-.66-.1-.27-.15-.62-.15-1.04v-3.4h-.85v-1.74h.85v-1.84h2.02v1.84h1.68v1.74h-1.68v3.08c0,.47.22.7.65.7.35,0,.69-.09,1-.27v1.63c-.21.13-.45.23-.71.3-.26.08-.56.11-.89.11"/>
  <path class="cls-1" d="M100.43,13.28c-.77,0-1.37-.24-1.79-.71-.42-.47-.63-1.13-.63-1.96v-4.65h2.02v4c0,.48.11.84.32,1.09.21.24.51.37.91.37s.7-.12.93-.37c.23-.25.34-.61.34-1.09v-4h2.02v7.19h-2.02v-1.03c-.12.15-.24.3-.38.44-.14.14-.29.26-.46.37-.17.11-.35.19-.56.26s-.43.09-.69.09"/>
  <path class="cls-1" d="M108.61,13.27c-.31,0-.59-.03-.84-.1s-.47-.18-.65-.36c-.18-.17-.32-.39-.43-.66-.1-.27-.15-.62-.15-1.04v-3.4h-.85v-1.74h.85v-1.84h2.02v1.84h1.68v1.74h-1.68v3.08c0,.47.22.7.65.7.35,0,.69-.09,1-.27v1.63c-.21.13-.45.23-.71.3-.26.08-.56.11-.89.11"/>
  <path class="cls-1" d="M114.95,11.55c.29,0,.55-.05.78-.15.23-.1.42-.24.58-.42.16-.18.28-.39.37-.62.08-.24.13-.49.13-.76v-.03c0-.27-.05-.52-.13-.76-.09-.24-.22-.45-.39-.63-.17-.18-.37-.33-.6-.43-.23-.11-.48-.16-.76-.16-.29,0-.55.05-.78.15-.23.1-.42.24-.58.42-.16.18-.28.39-.37.62-.08.24-.13.49-.13.76v.03c0,.27.04.52.13.76.09.24.22.45.39.63.17.18.37.33.59.44.23.11.48.16.77.16M114.93,13.31c-.55,0-1.06-.1-1.53-.29-.47-.19-.88-.46-1.22-.79-.34-.34-.61-.73-.81-1.18-.19-.45-.29-.94-.29-1.45v-.03c0-.52.1-1,.29-1.45.19-.45.47-.85.81-1.19.35-.34.75-.61,1.22-.8.47-.2.99-.29,1.54-.29s1.06.1,1.53.29c.47.19.88.46,1.22.79.34.33.61.73.8,1.18s.29.94.29,1.45v.03c0,.52-.1,1-.29,1.45-.19.45-.47.85-.81,1.19-.35.34-.75.61-1.22.8-.47.2-.99.29-1.54.29"/>
  <path class="cls-1" d="M127.88,8.5c.51,0,.91-.14,1.2-.41.28-.27.43-.61.43-1.01v-.03c0-.46-.15-.82-.45-1.06-.3-.24-.7-.36-1.22-.36h-1.58v2.87h1.62ZM124.2,3.77h3.81c.56,0,1.06.08,1.5.23.44.16.81.38,1.12.66.31.29.54.63.71,1.03.16.4.25.84.25,1.32v.03c0,.54-.1,1.02-.29,1.43-.19.41-.46.75-.8,1.03-.34.28-.74.49-1.2.62-.46.14-.95.21-1.47.21h-1.56v2.81h-2.05V3.77Z"/>
  <path class="cls-1" d="M136.13,11.55c.29,0,.55-.05.78-.15.23-.1.42-.24.58-.42.16-.18.28-.39.37-.62.08-.24.13-.49.13-.76v-.03c0-.27-.04-.52-.13-.76-.09-.24-.22-.45-.39-.63-.17-.18-.37-.33-.6-.43s-.48-.16-.76-.16c-.29,0-.55.05-.78.15-.23.1-.42.24-.58.42-.16.18-.28.39-.37.62-.08.24-.13.49-.13.76v.03c0,.27.04.52.13.76.09.24.22.45.39.63.17.18.37.33.59.44.23.11.48.16.77.16M136.1,13.31c-.55,0-1.06-.1-1.53-.29-.47-.19-.88-.46-1.22-.79-.34-.34-.61-.73-.8-1.18-.19-.45-.29-.94-.29-1.45v-.03c0-.52.1-1,.29-1.45.19-.45.47-.85.81-1.19.35-.34.75-.61,1.22-.8.47-.2.99-.29,1.54-.29s1.06.1,1.53.29c.47.19.88.46,1.22.79.34.33.61.73.8,1.18s.29.94.29,1.45v.03c0,.52-.1,1-.29,1.45-.19.45-.47.85-.81,1.19-.35.34-.75.61-1.22.8-.47.2-.99.29-1.54.29"/>
  <rect class="cls-1" x="141.29" y="3.36" width="2.02" height="9.79"/>
  <rect class="cls-1" x="145.04" y="5.96" width="2.02" height="7.18"/>
  <path class="cls-1" d="M151.14,13.27c-.31,0-.59-.03-.85-.1-.25-.07-.47-.18-.65-.36-.18-.17-.32-.39-.43-.66-.1-.27-.15-.62-.15-1.04v-3.4h-.85v-1.74h.85v-1.84h2.02v1.84h1.68v1.74h-1.68v3.08c0,.47.22.7.65.7.35,0,.69-.09,1-.27v1.63c-.21.13-.45.23-.71.3-.26.08-.55.11-.89.11"/>
  <path class="cls-1" d="M157.84,2.8l1.74.76-1.7,1.61h-1.54l1.5-2.37ZM158.65,8.99c-.06-.46-.22-.83-.48-1.11-.26-.28-.6-.42-1.02-.42s-.77.14-1.03.42-.43.65-.51,1.11h3.05ZM157.34,13.31c-.53,0-1.03-.09-1.48-.27-.46-.18-.85-.43-1.18-.76-.33-.33-.59-.72-.78-1.17-.19-.45-.28-.95-.28-1.51v-.03c0-.51.09-.99.26-1.45.17-.46.41-.85.73-1.19.31-.34.68-.61,1.11-.8.43-.2.91-.29,1.43-.29.59,0,1.11.11,1.54.32.43.21.8.5,1.08.86.29.36.5.78.64,1.25.14.47.21.96.21,1.47,0,.08,0,.17,0,.25,0,.09-.01.18-.02.28h-4.96c.1.46.3.82.61,1.05.31.24.68.36,1.14.36.34,0,.64-.06.9-.17.27-.12.54-.3.83-.56l1.16,1.03c-.34.42-.74.75-1.22.99-.48.24-1.04.36-1.69.36"/>
  <path class="cls-1" d="M165.25,13.31c-.53,0-1.03-.1-1.48-.29-.46-.2-.85-.46-1.18-.8-.33-.33-.59-.73-.77-1.18s-.28-.93-.28-1.44v-.03c0-.51.09-.99.28-1.45.19-.46.44-.85.77-1.19.33-.34.72-.61,1.18-.8.46-.2.96-.29,1.51-.29.67,0,1.23.11,1.68.32.44.21.83.51,1.17.88l-1.24,1.34c-.23-.24-.47-.43-.71-.58-.24-.14-.55-.21-.91-.21-.26,0-.49.05-.7.15-.21.1-.39.24-.55.42-.16.18-.28.39-.36.62-.08.24-.13.49-.13.76v.03c0,.28.04.54.13.78.08.24.21.45.37.63.16.18.35.32.57.42.22.1.47.15.74.15.34,0,.63-.07.89-.21.25-.14.5-.32.75-.56l1.18,1.21c-.35.38-.74.7-1.18.95s-1.02.37-1.73.37"/>
  <path class="cls-1" d="M169.2,5.96h2.02v1.03c.11-.15.24-.3.38-.44.14-.14.29-.26.46-.37.17-.11.35-.19.56-.26.21-.06.44-.09.69-.09.77,0,1.37.24,1.79.71.42.47.63,1.13.63,1.96v4.65h-2.02v-4c0-.48-.11-.84-.32-1.09-.21-.25-.51-.37-.9-.37s-.7.12-.93.37c-.23.24-.34.61-.34,1.09v4h-2.02v-7.18Z"/>
  <rect class="cls-1" x="177.36" y="5.96" width="2.02" height="7.18"/>
  <path class="cls-1" d="M184.38,13.31c-.53,0-1.03-.1-1.48-.29-.46-.2-.85-.46-1.18-.8-.33-.33-.59-.73-.77-1.18s-.28-.93-.28-1.44v-.03c0-.51.09-.99.28-1.45.19-.46.44-.85.77-1.19.33-.34.72-.61,1.18-.8.46-.2.96-.29,1.51-.29.67,0,1.23.11,1.68.32.44.21.83.51,1.17.88l-1.24,1.34c-.23-.24-.47-.43-.71-.58-.24-.14-.55-.21-.91-.21-.26,0-.49.05-.7.15-.21.1-.39.24-.55.42-.16.18-.28.39-.36.62-.08.24-.13.49-.13.76v.03c0,.28.04.54.13.78.08.24.21.45.37.63.16.18.35.32.57.42.22.1.47.15.74.15.34,0,.63-.07.89-.21.25-.14.5-.32.75-.56l1.18,1.21c-.35.38-.74.7-1.18.95-.44.25-1.02.37-1.73.37"/>
  <path class="cls-1" d="M191.63,11.55c.29,0,.55-.05.78-.15.23-.1.42-.24.58-.42.16-.18.28-.39.37-.62.08-.24.13-.49.13-.76v-.03c0-.27-.05-.52-.13-.76-.09-.24-.22-.45-.39-.63-.17-.18-.37-.33-.6-.43-.23-.11-.48-.16-.76-.16-.29,0-.55.05-.78.15-.23.1-.42.24-.58.42-.16.18-.28.39-.37.62-.08.24-.13.49-.13.76v.03c0,.27.04.52.13.76.09.24.22.45.39.63.17.18.37.33.59.44.23.11.48.16.77.16M191.61,13.31c-.55,0-1.06-.1-1.53-.29-.47-.19-.88-.46-1.22-.79-.34-.34-.61-.73-.8-1.18-.19-.45-.29-.94-.29-1.45v-.03c0-.52.1-1,.29-1.45.19-.45.47-.85.81-1.19.35-.34.75-.61,1.22-.8.47-.2.99-.29,1.54-.29s1.06.1,1.53.29c.47.19.88.46,1.22.79.34.33.61.73.8,1.18s.29.94.29,1.45v.03c0,.52-.1,1-.29,1.45-.19.45-.47.85-.81,1.19-.35.34-.75.61-1.22.8-.47.2-.99.29-1.54.29"/>
  <path class="cls-1" d="M68.67,25.49c.24,0,.46-.05.67-.14.21-.09.39-.23.55-.4.16-.17.28-.38.37-.63.09-.25.14-.52.14-.81v-.03c0-.29-.05-.57-.14-.81-.09-.25-.22-.46-.37-.63-.16-.17-.34-.31-.55-.4s-.43-.14-.67-.14-.46.05-.67.14c-.21.09-.39.23-.55.4-.16.17-.29.38-.38.62-.09.24-.14.51-.14.82v.03c0,.29.05.57.14.81s.22.46.38.63c.16.17.34.31.55.4.21.09.43.14.67.14M68.15,27.22c-.42,0-.82-.08-1.21-.24-.39-.16-.74-.4-1.04-.72-.3-.32-.54-.71-.73-1.17-.18-.46-.27-.99-.27-1.59v-.03c0-.6.09-1.13.27-1.59.18-.46.42-.85.72-1.17.3-.32.64-.56,1.03-.72.39-.16.8-.24,1.22-.24.54,0,.99.11,1.34.32.35.21.65.46.88.75v-3.54h2.02v9.79h-2.02v-1.03c-.25.34-.55.62-.9.84-.35.22-.79.33-1.32.33"/>
  <path class="cls-1" d="M78.71,22.93c-.06-.46-.22-.83-.48-1.11-.26-.28-.6-.42-1.02-.42s-.77.14-1.03.42-.43.65-.51,1.11h3.05ZM77.4,27.25c-.53,0-1.03-.09-1.48-.27-.46-.18-.85-.43-1.18-.76-.33-.33-.59-.72-.78-1.17-.19-.45-.28-.95-.28-1.51v-.03c0-.51.09-.99.26-1.45.17-.46.41-.85.73-1.19.31-.34.68-.61,1.11-.8.43-.2.91-.29,1.43-.29.59,0,1.11.11,1.54.32.43.21.8.5,1.08.86.29.36.5.78.64,1.25.14.47.21.96.21,1.47,0,.08,0,.17,0,.25,0,.09-.01.18-.02.28h-4.97c.1.46.3.82.61,1.05.31.24.68.36,1.14.36.34,0,.64-.06.91-.17.27-.12.54-.3.83-.56l1.16,1.03c-.34.42-.74.75-1.22.99s-1.04.36-1.69.36"/>
  <polygon class="cls-1" points="85.32 17.71 87.58 17.71 90.02 24.32 92.46 17.71 94.67 17.71 90.9 27.16 89.09 27.16 85.32 17.71"/>
  <rect class="cls-1" x="95.72" y="19.9" width="2.02" height="7.18"/>
  <path class="cls-1" d="M102.05,25.82c.48,0,.86-.12,1.15-.35.29-.23.43-.54.43-.91v-.36c-.18-.08-.37-.14-.59-.19-.22-.05-.45-.07-.7-.07-.44,0-.78.08-1.02.25-.25.17-.37.42-.37.74v.03c0,.28.1.49.31.64.2.15.47.23.8.23M101.44,27.22c-.34,0-.65-.05-.95-.14-.3-.09-.56-.24-.78-.42-.22-.19-.4-.42-.53-.69-.13-.27-.19-.59-.19-.95v-.03c0-.39.07-.73.21-1.02.14-.29.34-.52.59-.71.25-.19.55-.33.9-.42.35-.09.74-.14,1.17-.14.36,0,.68.03.95.08.27.05.54.12.79.21v-.12c0-.43-.13-.76-.39-.98-.26-.22-.64-.33-1.14-.33-.39,0-.73.03-1.03.1-.3.07-.61.16-.94.29l-.51-1.56c.39-.17.8-.31,1.22-.42.43-.11.94-.16,1.54-.16.56,0,1.04.07,1.43.21.39.14.72.34.98.6.27.27.46.6.59.98.12.39.19.83.19,1.31v4.17h-1.96v-.78c-.25.28-.55.5-.89.66-.35.17-.77.25-1.26.25"/>
  <path class="cls-1" d="M107.14,19.9h2.02v1.03c.11-.15.24-.3.38-.44.14-.14.29-.26.46-.37.17-.11.36-.19.56-.26s.43-.09.69-.09c.77,0,1.37.24,1.79.71.42.47.63,1.13.63,1.96v4.65h-2.02v-4c0-.48-.11-.84-.32-1.09-.21-.25-.51-.37-.9-.37s-.7.12-.93.37c-.23.24-.34.61-.34,1.09v4h-2.02v-7.18Z"/>
  <path class="cls-1" d="M117.89,25.82c.48,0,.86-.12,1.15-.35.29-.23.43-.54.43-.91v-.36c-.18-.08-.37-.14-.59-.19-.22-.05-.45-.07-.7-.07-.44,0-.78.08-1.02.25s-.37.42-.37.74v.03c0,.28.1.49.31.64.2.15.47.23.8.23M117.28,27.22c-.34,0-.65-.05-.95-.14-.3-.09-.56-.24-.78-.42-.22-.19-.4-.42-.53-.69-.13-.27-.19-.59-.19-.95v-.03c0-.39.07-.73.21-1.02.14-.29.34-.52.59-.71.25-.19.55-.33.9-.42.35-.09.74-.14,1.16-.14.36,0,.68.03.95.08.27.05.53.12.79.21v-.12c0-.43-.13-.76-.39-.98-.26-.22-.64-.33-1.14-.33-.39,0-.73.03-1.03.1-.3.07-.61.16-.94.29l-.51-1.56c.39-.17.8-.31,1.22-.42.43-.11.94-.16,1.54-.16.56,0,1.04.07,1.43.21.39.14.72.34.98.6.27.27.46.6.59.98.12.39.19.83.19,1.31v4.17h-1.96v-.78c-.25.28-.55.5-.89.66-.35.17-.77.25-1.27.25"/>
  <path class="cls-1" d="M130.31,25.49c.24,0,.46-.05.67-.14.21-.09.39-.23.55-.4.16-.17.28-.38.37-.63.09-.25.14-.52.14-.81v-.03c0-.29-.05-.57-.14-.81-.09-.25-.22-.46-.37-.63-.16-.17-.34-.31-.55-.4-.21-.09-.43-.14-.67-.14s-.46.05-.67.14c-.21.09-.39.23-.55.4-.16.17-.29.38-.38.62-.09.24-.14.51-.14.82v.03c0,.29.05.57.14.81.09.25.22.46.38.63.16.17.34.31.55.4.21.09.43.14.67.14M129.79,27.22c-.42,0-.82-.08-1.21-.24-.39-.16-.74-.4-1.04-.72-.3-.32-.54-.71-.73-1.17-.18-.46-.27-.99-.27-1.59v-.03c0-.6.09-1.13.27-1.59.18-.46.42-.85.72-1.17.3-.32.64-.56,1.03-.72.39-.16.8-.24,1.22-.24.54,0,.99.11,1.34.32s.65.46.89.75v-3.54h2.02v9.79h-2.02v-1.03c-.25.34-.55.62-.9.84-.35.22-.79.33-1.32.33"/>
  <path class="cls-1" d="M139.17,25.49c.29,0,.55-.05.78-.15.23-.1.42-.24.58-.42.16-.18.28-.39.37-.62.08-.24.13-.49.13-.76v-.03c0-.27-.04-.52-.13-.76-.09-.24-.22-.45-.39-.63-.17-.18-.37-.33-.6-.43-.23-.11-.48-.16-.76-.16-.29,0-.55.05-.78.15-.23.1-.42.24-.58.42-.16.18-.28.39-.37.62-.08.24-.13.49-.13.76v.03c0,.27.04.52.13.76.09.24.22.45.39.63.17.18.37.33.59.44.23.11.48.16.77.16M139.14,27.25c-.55,0-1.06-.1-1.53-.29-.47-.19-.88-.46-1.22-.79-.34-.34-.61-.73-.81-1.18-.19-.45-.29-.94-.29-1.45v-.03c0-.52.1-1,.29-1.45.19-.45.47-.85.81-1.19.35-.34.75-.61,1.22-.8.47-.2.98-.29,1.54-.29s1.06.1,1.53.29c.47.19.88.46,1.22.79.34.33.61.73.8,1.18.19.45.29.94.29,1.45v.03c0,.52-.1,1-.29,1.45-.19.45-.47.85-.81,1.19-.35.34-.76.61-1.22.8-.47.2-.99.29-1.54.29"/>
  <path class="cls-1" d="M152.78,27.25c-.68,0-1.32-.13-1.9-.38-.59-.25-1.09-.59-1.52-1.03-.43-.43-.76-.95-1-1.53-.24-.59-.36-1.22-.36-1.89v-.03c0-.67.12-1.3.36-1.88.24-.58.57-1.1,1-1.54.43-.44.94-.79,1.53-1.05.59-.25,1.25-.38,1.97-.38.43,0,.83.04,1.19.11.36.07.69.17.98.29.29.13.56.28.81.46.25.18.48.38.69.59l-1.3,1.51c-.36-.33-.73-.59-1.11-.78-.38-.19-.8-.28-1.27-.28-.39,0-.75.08-1.08.23-.33.15-.62.36-.86.63-.24.27-.43.58-.56.93-.13.35-.2.73-.2,1.13v.03c0,.4.07.78.2,1.14.13.36.32.67.55.94.23.27.52.48.85.64.33.16.7.24,1.1.24.53,0,.98-.1,1.35-.29.37-.2.73-.47,1.1-.8l1.3,1.33c-.24.26-.49.49-.75.7-.26.21-.54.38-.84.53-.31.15-.64.26-1.01.34-.36.08-.77.11-1.22.11"/>
  <path class="cls-1" d="M160.54,25.82c.48,0,.86-.12,1.15-.35.29-.23.43-.54.43-.91v-.36c-.18-.08-.38-.14-.59-.19-.22-.05-.45-.07-.7-.07-.44,0-.78.08-1.03.25-.25.17-.37.42-.37.74v.03c0,.28.1.49.31.64.2.15.47.23.8.23M159.93,27.22c-.34,0-.65-.05-.95-.14-.3-.09-.56-.24-.78-.42-.22-.19-.4-.42-.53-.69-.13-.27-.19-.59-.19-.95v-.03c0-.39.07-.73.21-1.02.14-.29.34-.52.59-.71.25-.19.55-.33.9-.42.35-.09.74-.14,1.17-.14.36,0,.68.03.95.08.27.05.54.12.79.21v-.12c0-.43-.13-.76-.39-.98-.26-.22-.64-.33-1.14-.33-.39,0-.73.03-1.03.1-.3.07-.61.16-.94.29l-.51-1.56c.39-.17.8-.31,1.22-.42.43-.11.94-.16,1.54-.16.56,0,1.04.07,1.43.21.39.14.72.34.98.6.27.27.46.6.59.98.12.39.19.83.19,1.31v4.17h-1.96v-.78c-.25.28-.55.5-.89.66-.35.17-.77.25-1.26.25"/>
  <path class="cls-1" d="M168.11,27.22c-.51,0-1.02-.09-1.55-.26-.53-.17-1.03-.45-1.51-.82l.87-1.34c.39.29.78.5,1.16.64.39.14.75.21,1.08.21.29,0,.51-.05.65-.15.14-.1.21-.23.21-.39v-.03c0-.11-.04-.2-.12-.28-.08-.08-.19-.15-.33-.21-.14-.06-.29-.11-.47-.17-.18-.05-.36-.11-.56-.17-.25-.07-.5-.16-.75-.26-.25-.1-.48-.24-.69-.4s-.37-.37-.5-.61c-.13-.24-.19-.54-.19-.88v-.03c0-.37.07-.69.21-.97.14-.28.32-.52.56-.72.23-.2.51-.34.83-.44.31-.1.65-.15,1.02-.15.45,0,.91.07,1.38.22s.89.35,1.28.61l-.77,1.41c-.35-.21-.7-.37-1.04-.49-.34-.12-.63-.18-.89-.18s-.44.05-.56.14c-.12.09-.19.21-.19.36v.03c0,.1.04.19.12.26.08.08.19.15.32.21.13.07.29.13.46.19.17.06.36.13.55.19.25.08.5.18.76.29s.49.25.69.41c.2.16.37.36.51.59.13.23.2.51.2.84v.03c0,.4-.07.75-.21,1.04-.14.29-.33.53-.58.72-.25.19-.54.33-.87.42-.33.09-.69.14-1.07.14"/>
  <path class="cls-1" d="M174.47,27.21c-.31,0-.59-.03-.84-.1-.25-.07-.47-.18-.65-.36-.18-.17-.32-.39-.43-.66-.1-.27-.15-.62-.15-1.04v-3.4h-.85v-1.74h.85v-1.84h2.02v1.84h1.68v1.74h-1.68v3.08c0,.47.22.7.65.7.35,0,.69-.09,1-.27v1.63c-.21.13-.45.23-.71.3s-.55.11-.89.11"/>
  <path class="cls-1" d="M181.98,22.93c-.06-.46-.22-.83-.48-1.11-.26-.28-.6-.42-1.02-.42s-.77.14-1.03.42-.43.65-.51,1.11h3.05ZM180.67,27.25c-.53,0-1.03-.09-1.48-.27-.46-.18-.85-.43-1.18-.76-.33-.33-.59-.72-.78-1.17-.19-.45-.28-.95-.28-1.51v-.03c0-.51.09-.99.26-1.45.17-.46.41-.85.73-1.19.31-.34.68-.61,1.11-.8.43-.2.91-.29,1.43-.29.59,0,1.11.11,1.54.32.43.21.8.5,1.08.86.29.36.5.78.64,1.25.14.47.21.96.21,1.47,0,.08,0,.17,0,.25,0,.09-.01.18-.02.28h-4.97c.1.46.3.82.61,1.05.31.24.68.36,1.14.36.34,0,.64-.06.91-.17.27-.12.54-.3.83-.56l1.16,1.03c-.34.42-.74.75-1.22.99-.48.24-1.04.36-1.69.36"/>
  <rect class="cls-1" x="185.3" y="17.3" width="2.02" height="9.79"/>
  <path class="cls-1" d="M192.5,25.49c.29,0,.55-.05.78-.15.23-.1.42-.24.58-.42.16-.18.28-.39.37-.62.08-.24.13-.49.13-.76v-.03c0-.27-.04-.52-.13-.76-.09-.24-.22-.45-.39-.63-.17-.18-.37-.33-.6-.43-.23-.11-.48-.16-.76-.16-.29,0-.55.05-.78.15s-.42.24-.58.42c-.16.18-.28.39-.37.62-.08.24-.13.49-.13.76v.03c0,.27.04.52.13.76.09.24.22.45.39.63.17.18.37.33.59.44.23.11.48.16.77.16M192.48,27.25c-.55,0-1.06-.1-1.53-.29-.47-.19-.88-.46-1.22-.79-.34-.34-.61-.73-.8-1.18-.19-.45-.29-.94-.29-1.45v-.03c0-.52.1-1,.29-1.45.19-.45.47-.85.81-1.19.35-.34.75-.61,1.22-.8.47-.2.99-.29,1.54-.29s1.06.1,1.53.29c.47.19.88.46,1.22.79.34.33.61.73.8,1.18.19.45.29.94.29,1.45v.03c0,.52-.1,1-.29,1.45-.19.45-.47.85-.81,1.19-.35.34-.75.61-1.22.8s-.99.29-1.54.29"/>
  <rect class="cls-1" x="9.63" y=".82" width="41.53" height="3.75"/>
  <rect class="cls-1" x=".6" y="13.15" width="4.15" height="13.94"/>
  <polygon class="cls-1" points="36.82 13.15 31.71 27.09 27.01 27.09 21.89 13.15 26.48 13.15 29.36 21.99 32.23 13.15 36.82 13.15"/>
  <path class="cls-1" d="M37.1,20.12c0-4.15,3.12-7.36,7.33-7.36,2.68,0,5.06,1.42,6.25,3.57l-3.62,2.12c-.47-.98-1.47-1.56-2.68-1.56-1.8,0-3.12,1.31-3.12,3.23s1.33,3.23,3.12,3.23c1.22,0,2.24-.58,2.68-1.56l3.62,2.09c-1.19,2.17-3.54,3.6-6.25,3.6-4.2,0-7.33-3.21-7.33-7.36"/>
  <path class="cls-1" d="M14.3,23.36c-1.58,0-2.95-1.04-2.95-3.1,0-2.29,1.31-3.37,2.96-3.37,1.8,0,3.12,1.31,3.12,3.23s-1.33,3.23-3.13,3.23M14.24,12.76c-3.56,0-6.73,3.46-6.73,7.08v16.41h4.56v-9.66c.53.5,1.47.89,2.39.89,4.2,0,7.22-3.21,7.22-7.36s-3.23-7.36-7.44-7.36"/>
  <path class="cls-1" d="M2.67,5.39c-1.46,0-2.67-1.23-2.67-2.7S1.22,0,2.67,0s2.68,1.23,2.68,2.7-1.22,2.7-2.68,2.7"/>
  <path class="cls-1" d="M90,5.25c-.63,0-1.16-.53-1.16-1.17s.53-1.17,1.16-1.17,1.16.53,1.16,1.17-.53,1.17-1.16,1.17"/>
  <path class="cls-1" d="M146.05,5.23c-.63,0-1.16-.53-1.16-1.17s.53-1.17,1.16-1.17,1.16.53,1.16,1.17-.53,1.17-1.16,1.17"/>
  <path class="cls-1" d="M178.37,5.24c-.63,0-1.16-.53-1.16-1.17s.53-1.17,1.16-1.17,1.16.53,1.16,1.17-.53,1.17-1.16,1.17"/>
  <path class="cls-1" d="M96.73,19.17c-.63,0-1.16-.53-1.16-1.17s.53-1.17,1.16-1.17,1.16.53,1.16,1.17-.53,1.17-1.16,1.17"/>
</svg>