<?xml version="1.0" encoding="UTF-8"?>
<svg id="Layer_1" data-name="Layer 1" xmlns="http://www.w3.org/2000/svg" viewBox="0 0 109.15 24.17" width="84" height="18">
  <defs>
    <style>
      .cls-1 {
        fill: #f7fbff;
      }
    </style>
  </defs>
  <path class="cls-1" d="M1.27,0h106.6c.73,0,1.27.55,1.27,1.28v21.6c0,.74-.54,1.28-1.27,1.28H1.27c-.73,0-1.27-.55-1.27-1.28V1.28C0,.55.54,0,1.27,0M12.62,13.35v.84c0,.23.19.42.42.42h1.04c3.26,0,5.42-1.72,5.42-5.09,0-3.76-2.17-5.11-5.42-5.11h-6.37c-.23,0-.42.19-.42.42v.84c0,.23.19.42.42.42h6.37c2.19,0,3.55.8,3.55,3.43,0,2.33-1.48,3.4-3.55,3.4h-1.04c-.23,0-.42.19-.42.42h0ZM31.41,12.92v1.68c0,.23.19.42.42.42h1.88c3.36,0,5.43-1.93,5.43-5.29,0-3.76-2.07-5.32-5.43-5.32h-6.05c-.23,0-.42.19-.42.42v1.68c0,.23.19.42.42.42h6.05c1.36,0,2.51.59,2.51,2.8s-1.27,2.77-2.51,2.77h-1.88c-.23,0-.42.19-.42.42M47.48,4.41c-3.15,0-5.84,1.55-5.84,5.74v3.68c0,3.78,2.69,5.72,5.84,5.72h.11c.23,0,.42-.19.42-.42v-1.68c0-.23-.19-.42-.42-.42h-.11c-2.27,0-2.92-1.49-2.92-3.2v-3.68c0-2,.52-3.22,2.92-3.22h.11c.23,0,.42-.19.42-.42v-1.68c0-.23-.19-.42-.42-.42h-.11ZM49.78,4.41h-.11c-.23,0-.42.19-.42.42v1.68c0,.23.19.42.42.42h.11c2.4,0,2.92,1.22,2.92,3.22v3.68c0,1.7-.65,3.2-2.92,3.2h-.11c-.23,0-.42.19-.42.42v1.68c0,.23.19.42.42.42h.11c3.15,0,5.84-1.93,5.84-5.72v-3.68c0-4.18-2.69-5.74-5.84-5.74M72.33,18.72l-4.13-4.69c1.63-.76,2.55-2.27,2.55-4.52,0-3.76-2.06-5.11-5.43-5.11h-6.05c-.23,0-.42.19-.42.42v1.68c0,.23.19.42.42.42h6.05c1.36,0,2.5.38,2.5,2.59s-1.27,2.57-2.5,2.57h-1.88c-.23,0-.42.19-.42.42v1.68c0,.23.19.42.42.42h1.46l4.28,4.81c.06.08.17.13.27.13h2.65c.23,0,.42-.15.42-.4,0-.21-.06-.27-.19-.42M73.77,6.93h11.48c.23,0,.42-.19.42-.42v-1.68c0-.23-.19-.42-.42-.42h-11.48c-.23,0-.42.19-.42.42v1.68c0,.23.19.42.42.42M93.39,4.41c-3.15,0-5.84,1.55-5.84,5.73v3.68c0,3.78,2.69,5.72,5.84,5.72h.1c.23,0,.42-.19.42-.42v-1.68c0-.23-.19-.42-.42-.42h-.1c-2.28,0-2.92-1.49-2.92-3.2v-3.68c0-2,.52-3.22,2.92-3.22h.1c.23,0,.42-.19.42-.42v-1.68c0-.23-.19-.42-.42-.42h-.1ZM95.69,4.41h-.1c-.23,0-.42.19-.42.42v1.68c0,.23.19.42.42.42h.1c2.4,0,2.92,1.22,2.92,3.22v3.68c0,1.7-.65,3.2-2.92,3.2h-.1c-.23,0-.42.19-.42.42v1.68c0,.23.19.42.42.42h.1c3.15,0,5.84-1.93,5.84-5.72v-3.68c0-4.18-2.69-5.73-5.84-5.73M9.08,19.54h1.04c.23,0,.42-.19.42-.42v-10.51c0-.23-.19-.42-.42-.42h-1.04c-.23,0-.42.19-.42.42v10.51c0,.23.19.42.42.42M27.65,19.54h2.08c.23,0,.42-.19.42-.42v-10.51c0-.23-.19-.42-.42-.42h-2.08c-.23,0-.42.19-.42.42v10.51c0,.23.19.42.42.42M59.27,19.54h2.09c.23,0,.42-.19.42-.42v-10.51c0-.23-.19-.42-.42-.42h-2.09c-.23,0-.42.19-.42.42v10.51c0,.23.19.42.42.42M80.56,8.2h-2.09c-.23,0-.42.19-.42.42v10.51c0,.23.19.42.42.42h2.09c.23,0,.42-.19.42-.42v-10.51c0-.23-.19-.42-.42-.42M20.66,19.63c.92,0,1.65-.74,1.65-1.66s-.73-1.66-1.65-1.66-1.65.73-1.65,1.66.73,1.66,1.65,1.66"/>
</svg>