<?xml version="1.0" encoding="UTF-8"?>
<svg id="Layer_1" data-name="Layer 1" xmlns="http://www.w3.org/2000/svg" viewBox="0 0 12 10" width="12" height="10">
  <defs>
    <style>
      .cls-1 {
        fill: #f7fbff;
      }
    </style>
  </defs>
  <path class="cls-1" d="M8.81,4.08H0v1.81h8.81v-1.81ZM12,5.9v-1.8c0-.56-.17-1.08-.5-1.58-.33-.5-.81-.88-1.43-1.16L7.1,0v2.14l2.01.91c.32.15.52.28.61.41.09.13.13.34.13.64v1.8c0,.3-.05.52-.13.64-.09.13-.29.26-.61.41l-2.01.91v2.14l2.98-1.36c.62-.28,1.1-.67,1.43-1.17.33-.5.5-1.03.5-1.57"/>
</svg>