<?xml version="1.0" encoding="UTF-8"?>
<svg id="Layer_1" data-name="Layer 1" xmlns="http://www.w3.org/2000/svg" viewBox="0 0 40 32" width="24" height="24">
  <defs>
    <style>
      .cls-1 {
        fill: #0082ff;
      }
    </style>
  </defs>
  <path id="Rectangle_23" data-name="Rectangle 23" class="cls-1" d="M3,0h34c1.66,0,3,1.34,3,3h0c0,1.66-1.34,3-3,3H3c-1.66,0-3-1.34-3-3h0C0,1.34,1.34,0,3,0Z"/>
  <path id="Rectangle_24" data-name="Rectangle 24" class="cls-1" d="M3,13h34c1.66,0,3,1.34,3,3h0c0,1.66-1.34,3-3,3H3c-1.66,0-3-1.34-3-3h0c0-1.66,1.34-3,3-3Z"/>
  <path id="Rectangle_25" data-name="Rectangle 25" class="cls-1" d="M3,26h34c1.66,0,3,1.34,3,3h0c0,1.66-1.34,3-3,3H3c-1.66,0-3-1.34-3-3h0c0-1.66,1.34-3,3-3Z"/>
</svg>